<svg xmlns="http://www.w3.org/2000/svg" viewBox="0 0 227.64 251.57"><defs><style>.cls-1{fill:#fff;}.cls-2{fill:#223165;}</style></defs><g id="Layer_2" data-name="Layer 2"><g id="All_Black_Blue_logos" data-name="All Black Blue logos"><path class="cls-1" d="M101.71,51.92C79.24,55.83,60.73,66.09,47,84.37a65.68,65.68,0,0,0-7.91,13.87l.27.21c.27-.21.55-.41.8-.64,3.61-3.15,7.22-6.28,10.8-9.46.86-.77,1.52-1,2.51-.14,1.4,1.17,3,2.1,4.38,3.28.7.59,1.1.41,1.65-.08,1.86-1.65,3.8-3.2,5.57-4.93.89-.87,1.42-.5,2.09.09l6.81,6a5.6,5.6,0,0,0,.5.36l6.34-5.39c1.15-1,2.32-1.89,3.44-2.88a.8.8,0,0,1,1.23,0c1.06.9,2.15,1.75,3.23,2.62.21.17.44.31.85.6,0-8.49,2.78-15.6,9.49-20.74a25,25,0,0,1,15.45-5.39c7.48,0,14,2.47,19.08,8.05a23.69,23.69,0,0,1,6.06,19.92L144,86.07c1.31,1.13,2.6,2.19,3.83,3.31,1.46,1.32,2.88,2.69,4.3,4.05.47.45.76.55,1.34,0,2.19-2.09,4.48-4.08,6.71-6.13.67-.62,1.09-.21,1.55.26,1.36,1.38,2.75,2.73,4.06,4.15.5.54.81.47,1.34.07,1.82-1.36,3.7-2.62,5.5-4,.61-.47.88-.28,1.34.17,3.3,3.27,6.62,6.5,10,9.73a6.67,6.67,0,0,0,1.81,1.24A77.18,77.18,0,0,0,161.56,67.7c-10.78-8.39-23.07-13.12-36.63-15.41.84-.87,1.58-1.67,2.37-2.42.14-.13.5-.09.74,0a85.4,85.4,0,0,1,25.1,8.78,81.6,81.6,0,0,1,22.59,18.5,80.68,80.68,0,0,1,11.71,18A68.07,68.07,0,0,1,193.59,118,87.1,87.1,0,0,1,193,138.2c-.33,2.27-.92,4.5-1.31,6.77-.18,1-.63,1.28-1.65,1.1-5.15-.88-10.28-1.87-15.46-2.49-10.18-1.24-20.39-2.33-30.59-3.35-4.94-.49-9.91-.7-14.87-1a2.83,2.83,0,0,0-1.36.2c8.6,1.67,17.35,2,26,3.1s17.33,2.12,26,3.18l0,.46h-5.63c-5.37,0-10.74.17-16.11,0-5.21-.13-10.43.54-15.64-.32a114.48,114.48,0,0,1-16.14-4c-2.26-.73-4.51-1.47-6.78-2.17a5.88,5.88,0,0,1-4.24-5.07c-.07-.38-.17-.76-.25-1.14l-.28,0-.7,2.58h-.24l-.49-2H113c-.07.24-.18.49-.23.74-.1.57-.19,1.15-.28,1.73a4.62,4.62,0,0,1-3.58,4.07c-4.86,1.32-9.67,2.85-14.58,3.93a105.27,105.27,0,0,1-12.87,2,106.42,106.42,0,0,1-10.72.19c-5.3,0-10.6-.16-15.89-.25a2.13,2.13,0,0,1-.93-.21c16.23-2.87,32.63-4.32,49-6.14v-.43a13.91,13.91,0,0,0-1.82-.12c-5.86.47-11.73.86-17.58,1.48-7.48.79-14.94,1.73-22.4,2.68-6.41.81-12.81,1.77-19.22,2.56a53.69,53.69,0,0,1-6.35.2,1.23,1.23,0,0,1-.88-.69C31.52,135.46,30,125,31.7,114.2a69.64,69.64,0,0,1,6.78-21.75A78.1,78.1,0,0,1,53,72.89,87.34,87.34,0,0,1,77.6,56.08a83.53,83.53,0,0,1,17.54-5.73c1-.23,2.07-.43,3.1-.69a1.79,1.79,0,0,1,2,.68C100.66,50.84,101.13,51.29,101.71,51.92Zm18.35,76.44c1.65,2,3.34,1.81,4.52-.62a.89.89,0,0,1,.71-.42,1.58,1.58,0,0,0,1.83-1.34,1.1,1.1,0,0,1,.59-.7A2.77,2.77,0,0,0,130,122a5.47,5.47,0,0,0,1.83,0,2.93,2.93,0,0,0,1.58-1.23,1.35,1.35,0,0,1,1.2-1,1.8,1.8,0,0,0,1.21-3,6.16,6.16,0,0,0-2-1.37,10.58,10.58,0,0,0-1.81-.56l0-.3c.76-.31,1.53-.6,2.28-.93a2.12,2.12,0,0,0,1.4-2.46,6.18,6.18,0,0,0-1-1.7c.59-.9,1.07-2,0-3a17.49,17.49,0,0,0-2.89-1.8,6,6,0,0,1,.4-.53,1.93,1.93,0,0,0,.14-2.84,3.44,3.44,0,0,0-3.32-1.49c-.58.05-1.16,0-2,0,1.19-1.18,2-2.26,1.19-3.67-1.13-2-3-2.07-5-1.57,1.27-2.45,1.25-2.43.42-3.6-1.39-2-3.12-1.32-4.86-.55-.05-3.5-2-5-5-3.77-.89.37-1.61.73-2.47,0-.14-.11-.43,0-.64,0-2.34.13-3.29,1.43-2.81,4-.59-.1-1.15-.25-1.71-.29a2.79,2.79,0,0,0-2.81,1.31c-.64,1.07,0,1.87.64,2.66a9.14,9.14,0,0,1,.5.85c-1.72-.72-3.23-1.08-4.51,0-1.65,1.42-.3,2.72.66,4.19A7.58,7.58,0,0,0,99,99a7.51,7.51,0,0,0-2.62.44c-1.53.75-1.64,2.22-.39,3.38a15,15,0,0,0,1.34,1,14.64,14.64,0,0,1-2.78.6,2.34,2.34,0,0,0-1.5,3.78l.55.76c-2.1.7-2.57,1.49-2,3a3.69,3.69,0,0,0,2.47,2l1.16.41v.29c-.31.13-.64.25-.94.4a9.74,9.74,0,0,0-1.79,1c-1.46,1.24-1.13,3,.62,3.75a1.5,1.5,0,0,1,.75.89c.28,1.13.75,1.57,1.89,1.4a22.65,22.65,0,0,0,2.22-.59c-.92,1.63,0,2.69.81,3.85,1.09,1.47,2.57.44,4,.71a3,3,0,0,0,1.4,3.52c1.64,1,2.53-.28,3.63-1.2.43.69.82,1.26,1.15,1.85.52.94,1.33.92,2.19.74a1.55,1.55,0,0,0,1.21-1.62c.19-2.17-.86-3.86-2.17-5.44a.87.87,0,0,0-.8-.16c-1.13,1.06-2.53.77-3.84.82a4.79,4.79,0,0,1-1.58-.54l.09-.51,5.17-.3c-.63-1.48-1.2-2.83-1.77-4.19l.43-.26,4.53,4.17.27-.15c.14-2.34.2-4.64-1.44-6.68-3.08-3.81-6.9-5.35-11.79-3.89l.23-.44L98,110.55h4.64c1,0,1.54-.31,1.28-1.44a7.55,7.55,0,0,1,0-1.53,24.84,24.84,0,0,0,1.72,2.18c1.34,1.37,1.86,1.26,2.66-.43a6.63,6.63,0,0,1,.47-.64c-.22,3.27,2.32,4.16,4.06,5.8a24.34,24.34,0,0,0,.18-3.27,6.61,6.61,0,0,0-2.09-5.23c-1.43-1.3-2.93-2.52-4.41-3.75a7.84,7.84,0,0,0-1.09-.65l.42-.48c2.92.57,5.23,2.28,7.62,4.43-.15-3.14.71-6.27-2.58-8.14a3.26,3.26,0,0,1-.93-.92,5.25,5.25,0,0,1-.44-1.06l.2-.1,3.52,2.18c.11-1.8.19-3.24.27-4.69l.45,0c.36,1.48.71,3,1.09,4.5l3.16-1.88c-1.13,1.53-2.62,2.83-3.14,4.45s-.12,3.62-.12,5.44l.3,0c1.62-2.46,4-3.66,6.85-4.65-2,2.24-3.92,4.18-5.58,6.33-1.81,2.36-1.53,5.17-1.17,8,1.12-1.17,2.13-2.38,3.11-3.62.69-.87,1.6-1.66,1.11-3,1-.1,1.24.45,1.18,1.21s.25.85.86.67a3.56,3.56,0,0,0,2.29-1.55,6.74,6.74,0,0,1,.94-1.07l.24.14-.61,2.33,4.67.55a4.14,4.14,0,0,1-3.62.94c-2.45-.22-4.93-.18-6.6,2a21.46,21.46,0,0,0-3.06,5c-.56,1.41-.39,3.11-.54,4.67l.4.1.76-.71c1-1,1.9-1.93,2.91-2.82.26-.25.74-.25,1.12-.37l.18.34c-1,1.53-2.07,3.07-3.13,4.57A7.31,7.31,0,0,0,115.8,129c.08,1.58,1.3,2.24,2.57,1.32A11.4,11.4,0,0,0,120.06,128.36ZM71.15,93.42c-1.8-1.65-3.36-3.1-5-4.49-.12-.1-.66.11-.88.31-1.13,1-2.19,2-3.31,3q-10.7,9.41-21.39,18.78c-.25.23-.46.5-.93,1,1-.12,1.75-.18,2.46-.28,1-.15,1.93-.19,2.45,1a1.38,1.38,0,0,0,1.11.62c.41,0,.8-.46,1.19-.72A126.94,126.94,0,0,0,65.84,97a3.38,3.38,0,0,1,.89-.45A7.08,7.08,0,0,1,67,97.75c0,.23-.17.47-.27.71-2,4.61-5,8.56-8.11,12.43l-1.83,2.27c.22.16.29.25.39.27,1.35.29,2.75.44,3.6,1.78.07.12.85,0,1-.19a46,46,0,0,0,8.3-12.92c.12-.28.29-.54.35-.67,2.54,2.36,4.88,4.83,7.51,6.93s5.54,3.83,8.37,5.74c-.18-1-.63-1.92-.35-2.49s1.34-.41,2.18-.63a3.66,3.66,0,0,1,.3-1.13c.39-.65.23-.93-.35-1.39-6-4.73-11.92-9.51-17.87-14.27a5,5,0,0,1-.55-.7ZM175.89,119l.19-.23-.46-.42A110.69,110.69,0,0,1,162.94,105l-6.15-7.69c-.89-1.09-.91-1.09-1.92-.18s-1.71,1.59-2.64,2.29c-4.3,3.26-8.63,6.49-12.94,9.74-.24.19-.56.47-.57.72-.09,1.29-.08,2.58-.11,3.9a3.44,3.44,0,0,1,.5.51c.53.76,1,1.11,2,.42,3.25-2.45,6.59-4.8,9.82-7.29,1.63-1.26,3.1-2.73,4.76-4.22,2.92,4.48,5.85,8.92,9.67,12.65,1-1.23,2.53-1,3.76-1,1.07.06,2.13.93,3.13,1.55C173.47,117.25,174.67,118.14,175.89,119ZM133.39,74.9s.4-.13.4-.27a2.2,2.2,0,0,0-.24-1.22,18.87,18.87,0,0,0-5.41-5.49,22.93,22.93,0,0,0-14.72-4,22.3,22.3,0,0,0-10.35,3.2c-1.32.78-1.29,1.16-.07,1.85a2.51,2.51,0,0,1,.88.63c1,1.46,2.74,1.72,4.2,2.38a2.06,2.06,0,0,0,2.27-.08,2.2,2.2,0,0,1,1.36-.21c1.84.17,3.69.32,5.51.63,1.08.18,2.09.71,3.21.11.24-.12.68.13,1,.23,1.21.37,2.42.79,3.65,1.08.62.14,1.38-.16,1.92.08C129,74.77,131,74.74,133.39,74.9ZM187.7,115c-.42-.39-.81-.81-1.26-1.17a191,191,0,0,1-16.36-14.53c-3-3-6-6.06-9-9.12-.55-.57-1-.75-1.61-.11s-1.61,1.36-2.42,2c-.46.38-.59.78-.13,1.29,3.24,3.66,6.31,7.48,9.72,11,4.76,4.87,10.34,8.78,16,12.6a5,5,0,0,0,.88.4l.13-.23-1-1.23C184.14,114.76,185.85,115,187.7,115ZM75.39,95.82c.86,0,1.3,1.17,2.06.32.45-.52.79-.47,1.3-.16,3.54,2.12,7.09,4.21,10.62,6.34,1.95,1.18,2,1.22,2.49-1.08a4.89,4.89,0,0,1,3.18-4,5.18,5.18,0,0,0,.89-.56c-.87-.73-1.63-1.34-2.37-2l-8.07-7c-.41-.36-.76-.66-1.31-.16-2.52,2.32-5.06,4.62-7.58,6.94C76.21,94.82,75.89,95.25,75.39,95.82Zm60.41,7.36a4,4,0,0,0,0,.77c.15.77,1.14,1.4,1.66,1,3.39-2.34,6.8-4.66,10.15-7.06.89-.64,1.6-1.37,2.73-.44.23.18.8-.07,1.21-.12-.11-.33-.13-.77-.36-1-2.26-2.33-4.56-4.62-6.85-6.92-.42-.43-.73-.43-1.18,0-1.44,1.44-2.95,2.83-4.42,4.25s-3.15,3-4.71,4.58c-.4.39-.68.8,0,1.23A3.89,3.89,0,0,1,135.8,103.18Zm52.26,6.54c.42-1.77.63-3.24-.51-4.47-1.37-1.47-2.83-2.85-4.22-4.3-3.19-3.36-6.36-6.74-9.57-10.08-.31-.32-1-.72-1.2-.6-1.57,1-3.07,2.06-4.75,3.22C174.23,99.42,180.61,105,188.06,109.72ZM56.84,93.89C55.41,92.82,54.15,92,53,91a.92.92,0,0,0-1.47,0c-2.61,2.34-5.29,4.6-7.86,7-2.07,1.9-4.07,3.88-6,5.91a10.78,10.78,0,0,0-1.31,2.32c1.49.49,3-1.44,4,.82ZM76,123.65c-1.29.7-3,.79-3.21,2.65a4.31,4.31,0,0,0,.53,1.56l.38,0c.43-2.38,2.55-3.22,4.15-4.25a7.12,7.12,0,0,1,8.18.87c.89.86,1.89,1.6,2.77,2.47a3.82,3.82,0,0,1,.79,1.37,1.88,1.88,0,0,0,2,1.15c-.15-2.8-.79-3.51-3.81-4.26-.29-2.69-1.1-3.36-4.22-3.38.27-1-.45-1.48-1.2-1.61-1.26-.22-2.56-.24-3.43,1C76.35,121,75.24,121.8,76,123.65Zm76,.34a2.22,2.22,0,0,0-2.64-2.71,1.8,1.8,0,0,1-1.57-.36c-1.18-.85-2.33-.09-3.43.24-.29.08-.35,1-.53,1.48-2.46-.35-4.5,1.25-3.77,3.14,1.45-.67,2.94-1.25,4.32-2a3.54,3.54,0,0,1,2.72-.4,14.35,14.35,0,0,0,1.8.45c2,.21,3.06,1.7,4.18,3.12a9.24,9.24,0,0,0,1.45,1.26,8.07,8.07,0,0,0,.11-2C154.4,124.85,153.15,124.47,152,124Zm11.65,1.37a2.81,2.81,0,0,0-3.16,1,1.5,1.5,0,0,0-.34,1.69c1.59-.49,3.05-1,4.54-1.4,3.89-1,7.18,1.39,8.73,4.81.1.24.39.4.59.59,0-.59-.32-1-.27-1.33.29-2.07-.22-2.94-2.23-3.72-.3-.12-.68-.4-.73-.67-.28-1.45-.79-1.9-2.17-1.88a2.71,2.71,0,0,1-1.2-.34,3.1,3.1,0,0,0-2.93-.22C164.13,124.13,164,124.76,163.66,125.36Zm-111.09,6A14.53,14.53,0,0,1,54.42,129c1.9-1.61,3.89-3,6.68-2.49a9.58,9.58,0,0,1,5.06,2.36c.15.14.43.15.65.23a2.42,2.42,0,0,0,.08-.79,3.43,3.43,0,0,0-4.16-2.62c-.43-.58-.74-1.42-1.14-1.47-1.36-.17-2.88-.54-3.85.94-1.2-.65-2.08.05-3,.59-1,.63.32,1.24.09,1.9-1.2.48-2.64.65-2.92,2.26C51.83,130.52,51.89,131.13,52.57,131.38Zm137.72,2.43.27-.22c-.24-.37-.48-.73-.71-1.1-.13-.2-.35-.4-.36-.61-.12-2-1.06-2.84-3.07-2.61-.24-1.38-1.39-1.38-2.43-1.5-.79-.1-1.57-.11-1.7.59a12.63,12.63,0,0,0-2.83.53c-.4.18-.53,1-.78,1.5l1.48.08c.09,0,.19-.09.3-.13,2.27-.92,4.48-1.14,6.61.43.79.58,1.89.74,2.09,2C189.22,133.18,189.89,133.47,190.29,133.81Zm-154.82,1.6a20.56,20.56,0,0,0,1.74-2.1,7,7,0,0,1,8.2-2.57,24.36,24.36,0,0,0,2.31.85c0-1.8-1.37-2.47-3.28-1.93-.65-.48-1.09-1.08-1.57-1.1-1.2-.07-2.53-.13-3,1.47a2,2,0,0,0-2.67.67c-.2.25-.42.78-.31.91.79.9,0,1.19-.56,1.54A1.75,1.75,0,0,0,35.47,135.41Zm93-5.78.33.15,2.84-1.62a21.62,21.62,0,0,0,.88,2.18,4.44,4.44,0,0,0,.91.93c.15-.41.5-.88.4-1.21a26.1,26.1,0,0,0-1.51-3.72.9.9,0,0,0-1.62-.17C129.92,127.27,129.25,128.47,128.51,129.63ZM97,129.1c.51.75.89,1.38,1.35,2a3.78,3.78,0,0,0,.87.62c0-.39.2-.85.06-1.17a19.21,19.21,0,0,0-1.33-2.38,1.43,1.43,0,0,0-2.68,0,13.78,13.78,0,0,0-1.1,2.37c-.11.31.1.72.16,1.09.35-.11.81-.13,1-.36A27,27,0,0,0,97,129.1Zm39.33,1.29a1.67,1.67,0,0,0,.59-.11c1-.62,1.94-1.25,2.89-1.9.12-.08.23-.4.18-.46a1.38,1.38,0,0,0-.67-.46C138.13,127.25,136.29,129,136.3,130.39Zm20.08.85c2.21-.11,2.86-.58,3.1-2.19C158.14,128.37,156.61,129.42,156.38,131.24Zm-86,1c0-1.52-1-1.94-1.82-2.34-.27-.13-.71.12-1.08.19.12.41.12,1,.39,1.17A16.9,16.9,0,0,0,70.35,132.22Zm104.74,1.13.32.39a6.41,6.41,0,0,0,1.42-.58c.2-.14.17-.61.23-.93-.32,0-.77-.26-.95-.12A6.88,6.88,0,0,0,175.09,133.35Z"/><path class="cls-1" d="M27.62,185.76c0-1.6,0-3.16,0-4.72,0-2.71,0-2.7-2.65-2.73q-8-.09-16-.22c-.21,0-.42,0-.8-.08,1-1.75,1.87-3.41,2.83-5,.86-1.44,1.79-2.84,2.72-4.23a1.14,1.14,0,0,0,0-1.56q-6.24-8.12-12.46-16.26c-.28-.36-.65-.67-1.23-1.27l227.64-.74-.85,1.11c-4.22,5.69-8.4,11.41-12.67,17.05a2.14,2.14,0,0,0-.09,2.69q2.28,4,4.52,8.14c.17.31.31.63.59,1.19H216.5c-5,.08-10.08.18-15.12.22-.87,0-1,.37-1,1.13.09,1.68.11,3.36.19,5,0,.72-.15,1-1,1q-12.27-.18-24.53-.24c-5.26,0-10.51,0-15.77.08-6.13.05-12.26.17-18.4.15-11.76-.05-23.51-.19-35.27-.26-7.56,0-15.12,0-22.68,0-6.47,0-12.93-.19-19.39-.27q-16.77-.19-33.53-.35C29.31,185.56,28.59,185.68,27.62,185.76Zm108.64-30.82c1.61,1.81,1.48,3.95,1.58,6,.16,3.18.24,6.35.33,9.53.06,2.33.12,4.67.09,7a1.7,1.7,0,0,1-.64,1.34c-1.14.53-.22,1.29-.29,1.9,0,.17.66.59,1,.6,2.12.07,4.24,0,6.35,0,.36,0,.71,0,1.19-.06-.13-.36-.18-.59-.28-.8a7.39,7.39,0,0,1-1.18-2.39c-.24-3.16-.26-6.34-.36-9.52a5.87,5.87,0,0,1,.13-.92,8.16,8.16,0,0,1,.61.56c2.34,2.61,4.72,5.18,7,7.86,1.28,1.52,3.16,2.67,3.31,5h5.34a31.63,31.63,0,0,1-.64-3.16c-.14-1.56-.17-3.13-.2-4.7q-.14-7.29-.22-14.57c0-1.08-.11-2.2.85-3.06.24-.22.28-.68.41-1a4,4,0,0,0-1-.26c-2.34,0-4.68,0-7,.09a6.5,6.5,0,0,0-1,.14,9.47,9.47,0,0,0,.54.85,4.71,4.71,0,0,1,1.14,3c.07,3.47.23,6.93.34,10.4a3.16,3.16,0,0,1-.17.72c-1.59-1.8-3.1-3.47-4.58-5.17-2.56-2.95-5.08-5.93-7.66-8.86a2.35,2.35,0,0,0-1.42-.84A29.5,29.5,0,0,0,136.26,154.94Zm-26.62-.4a3.42,3.42,0,0,0,.22.64,5.66,5.66,0,0,1,1.13,3.58c0,1.49.07,3,.09,4.48q.09,7,.16,14c0,.35,0,.93-.22,1-1.11.49-.63,1.38-.66,2.16,0,.61.24.74.78.74,1.64,0,3.29,0,4.93,0,.82,0,1.64,0,2.5,0a3.77,3.77,0,0,0,0-.63.81.81,0,0,0-.19-.38,6.91,6.91,0,0,1-1.7-5c0-2.46,0-2.46,2.36-2.38a3.64,3.64,0,0,0,.66,0,1.49,1.49,0,0,1,1.6.87c.91,1.63,1.87,3.22,2.77,4.85.51.92.71,2.32,1.47,2.74s2.2.07,3.33.06h3.63l-.76-1.13c-1.81-2.64-3.61-5.3-5.43-7.94-.54-.78-.38-1.28.37-1.89a9,9,0,0,0,3.54-7,8.27,8.27,0,0,0-3-6.87c-2.15-1.8-4.73-2.15-7.4-2.16s-5.4,0-8.1,0C111.08,154.39,110.41,154.48,109.64,154.54Zm63.69,23.18c.3-.61.74-1.44,1.12-2.31a1.9,1.9,0,0,1,2.08-1.2c2.81.07,5.62.17,8.43,0a2.08,2.08,0,0,1,2.4,1.6c.25.75.59,1.47.88,2.2-.31.64-2.05.5-1.17,1.82l-.73.73c.32.17.63.48.95.48,2.45,0,4.89,0,7.34,0a10,10,0,0,0,1.14-.14c-.21-.39-.31-.61-.44-.82a16.22,16.22,0,0,1-1.71-3c-2-6.15-3.83-12.33-5.69-18.52a4.8,4.8,0,0,1-.14-2.4c.24-1,0-1.43-.91-1.56a19.44,19.44,0,0,0-2.41-.11c-1.65,0-3.3,0-5,0,.59,1.67.59,1.67-.21,3.13l-.06.09c-3.66,6.26-7.57,12.38-10.63,19-.43.93-1.48,1.55-2.06,2.43a2.37,2.37,0,0,0-.06,1.59,1,1,0,0,0,.71.57c2.41,0,4.81-.1,7.22-.18a5.91,5.91,0,0,0,1.11-.29Zm-67.46,3.46a27.57,27.57,0,0,1-1.77-2.94c-2.77-6.35-5.53-12.71-8.21-19.1-.53-1.24-1.34-2.59-.14-4.07H87a15.07,15.07,0,0,1-.58,3.16q-3.6,8.34-7.38,16.6c-.65,1.42-1,3-2.48,4-.31.22-.18,1.22-.07,1.83,0,.18.63.39,1,.39,2,0,3.94,0,5.92,0,.41,0,.83-.06,1.56-.11l-1.85-3.31c.38-.67.93-1.7,1.54-2.68a1.09,1.09,0,0,1,.77-.45c3.4,0,6.79,0,10.19.11a1.46,1.46,0,0,1,1.1.53c.59,1.07,1,2.22,1.45,3.15l-1,1.13a4.73,4.73,0,0,0,1.26.44c1.49.1,3,.1,4.48.17a7.53,7.53,0,0,1,1.06.16l0,.26-6-.29c-.44,0-1.07-.35-1,.43,0,.22.65.59,1,.6,2,.07,4,.05,6,.05C104.43,181.27,105,181.22,105.87,181.18Zm-56.42-2.76a9.33,9.33,0,0,1,2.09.61,18.54,18.54,0,0,0,13.73,2.13A8,8,0,0,0,70.92,177c2-3.79.92-8.13-2.7-10a24.33,24.33,0,0,0-4.86-1.62c-2.35-.65-4.76-1.1-7.09-1.83a2,2,0,0,1-.87-3.37,4.3,4.3,0,0,1,4-1.4,13.36,13.36,0,0,1,6.87,1.92c.61.41,1.08.38,1.49-.38.76-1.42,1.63-2.77,2.43-4.16a7.62,7.62,0,0,0,.43-1.27c-.49.17-.77.19-.93.34a2.24,2.24,0,0,1-2.7.34A19,19,0,0,0,59,154.11,11,11,0,0,0,51.43,157a6.64,6.64,0,0,0,1.25,10.63c2.43,1.49,5.12,1.84,7.79,2.38,1.43.29,2.87.57,4.27,1a2.28,2.28,0,0,1,1.73,2.27,2.1,2.1,0,0,1-1.57,2.12,6.68,6.68,0,0,1-1.24.41,14.93,14.93,0,0,1-9-1.55A8.26,8.26,0,0,1,53.1,173Z"/><path class="cls-1" d="M33.53,201.18,31.44,201l-.08-.22,3.14-1.35-.09-.41-4.5.66-.05-.15,2.91-1.23-.1-.49-4.05.44-.06-.15,3.57-1.69-.06-.33-4.18.39-.06-.19,2.53-1.08-.05-.26H26l0-.19,2.53-1.13,0-.19H24l2.3-1,0-.35c-.57,0-1.15,0-1.73,0-1.76.07-2-.17-2.15-1.9-.2-2-.53-4-.78-6-.09-.72-.17-1.34-.94-.89l-1.47-2.12c1.63,0,3.25,0,4.87,0,.18,0,.49.47.5.74.12,1.9.24,3.8.22,5.69,0,1,.31,1.33,1.31,1.34q13.57.14,27.17.36c7,.12,13.95.4,20.92.48,9.21.11,18.41.09,27.62.12q10.52,0,21,0,27.72-.06,55.43-.17c8.07,0,16.14-.2,24.21-.28.8,0,1.1-.2,1.06-1-.08-1.71,0-3.43-.09-5.15,0-.82.17-1.19,1.1-1.15,1.82.07,3.65,0,5.55,0-.77.83-1.45,1.59-2.16,2.32a.76.76,0,0,1-.59.16c-1-.23-1.19.33-1.26,1.13-.12,1.34-.3,2.68-.42,4-.05.53-.13,1.11.67,1.27.15,0,.31.54.27.8s-.39.3-.62.4a11.77,11.77,0,0,1-1.49.58,2.93,2.93,0,0,1-1.06.11,28.84,28.84,0,0,0-3.86-.2l2.8,1.51-.06.26-5.93-.81-.12.19,3.07,1.67-.07.25-5-.68-.08.18,3.76,2-.05.19-6.27-1.16-.08.26,4.6,2.24-.07.22-7.26-1.36-.07.14,4.73,2.33-.06.22-5.9-1.19-.13.34,3,1.42-.07.29-2.86-.32-.11.32a5.59,5.59,0,0,0,.85.42c4,1.17,8.07,2.3,12.09,3.52,1.81.55,3.56,1.27,5.49,2,1.74-2.24,2.25-5.12,3.31-7.77-.13,2.51-.39,5-2.06,7.06A16.37,16.37,0,0,0,205.4,209a1,1,0,0,1-1.46.57,20.22,20.22,0,0,0-3.15-.59,2.76,2.76,0,0,0,.23-.53c0-.21.14-.52,0-.66a2,2,0,0,0-2.64,0c-1.87,2.35-3.66,4.75-5.61,7a108.86,108.86,0,0,1-17.67,16.31,104.51,104.51,0,0,1-21.33,12.23,98.45,98.45,0,0,1-23.15,6.85,102.25,102.25,0,0,1-54.13-5.68A98.71,98.71,0,0,1,52,230.65a109.17,109.17,0,0,1-18.3-17.71c-1.66-2-3.12-4.23-4.69-6.34-.38-.52-.48-1.41-1.45-1.2s-1.48.65-1.14,1.68c-1.27.15-2.39.33-3.53.39s-1.6-.79-1.8-1.79c-.08-.38-.12-.78-.22-1.42l.81,1.11c3-2.32,6.72-2.16,10-3.26.6-.2,1.23-.33,1.85-.49ZM196.06,206l-.16-.41c-4.21-.8-8.42-1.63-12.64-2.38a1.55,1.55,0,0,0-1.07.52c-3.21,3.14-6.23,6.48-9.61,9.43A93.24,93.24,0,0,1,122,235c-5.4.52-10.83.91-16.25.07-3-.46-6-.79-9-1.32a77.55,77.55,0,0,1-23.44-8.58,86.15,86.15,0,0,1-19-14.08c-2.9-2.82-5.5-5.94-8.25-8.9a1.34,1.34,0,0,0-1-.44c-4.16.76-8.31,1.57-12.46,2.38-1.31.25-1.49.6-.68,1.61,2.93,3.62,5.81,7.31,8.89,10.8,6.23,7.06,13.67,12.72,21.58,17.74a91.46,91.46,0,0,0,20.29,9.4c1.26.42,2.54.77,4,1.2-.46-1.78-2.09-2.19-3.06-3.22,1.73,0,2.31,1.43,3.21,2.48a3.2,3.2,0,0,0,1.45,1.16c3.82.88,7.65,1.81,11.52,2.41a76.26,76.26,0,0,0,10,.88c4.23.1,8.46,0,12.69-.21a47.38,47.38,0,0,0,6.51-.76c3.34-.59,6.65-1.34,10-2.07,1.26-.28,2.5-.69,3.75-1a4.33,4.33,0,0,0-2-1.11,8.93,8.93,0,0,0-2.17.14V243a12.26,12.26,0,0,1,2.27,0,20.24,20.24,0,0,1,2,.79,2.88,2.88,0,0,0,1.5.11,116.61,116.61,0,0,0,18.19-8.05c.36-.19.72-.41,1.13-.65-1.53-1.13-2.93,0-4.65.14a5.6,5.6,0,0,1,.57-.54c1.31-.82,2.7-.21,4.05-.2a2.68,2.68,0,0,0,1.42-.25c2.76-1.77,5.48-3.6,8.21-5.44a17.67,17.67,0,0,0,1.45-1.17l-.18-.43-2.63.61a19.59,19.59,0,0,1-2.95.74c-1.59.15-2.25-.4-2.71-1.94a1,1,0,0,1-.4-.05c-.51-.29-1.22-.51-1.43-.95s.18-1.07.45-1.54a3,3,0,0,1,1-.94c.85-.48.85-1,.14-1.62-1.54,1.07-3.07,2.12-4.58,3.2-.14.1-.25.51-.16.62a3.63,3.63,0,0,1,.51,4c1.19,0,2.12,0,3.06,0a2.11,2.11,0,0,1,.71.31c-.24.15-.51.44-.73.41-1.22-.17-2.44-.38-3.64-.67a4.31,4.31,0,0,1-1.14-.73,6,6,0,0,1,.84-1c.77-.61.19-1.16-.1-1.61a1.08,1.08,0,0,0-1-.21c-1.07.67-2.07,1.45-3.12,2.2l3.27,5.78-.43.29-1.38-1.71a7.63,7.63,0,0,1-.69.86,2.77,2.77,0,0,1-3.05.5c-.52-.36-1.18-1-1.19-1.51,0-1.26,1-1.84,2.08-2.2.41-.13.8-.32,1.32-.53l-.73-1.16-2.51,1.32c-1.79.92-1.79.92-2.44.7a4.2,4.2,0,0,1,.44-.35c2.41-1.42,4.85-2.79,7.23-4.26,1.89-1.17,3.76-2.38,5.54-3.71,2.76-2.09,5.43-4.31,8.15-6.45a10.28,10.28,0,0,1,1.13-.72l.19.28-.84,1,4.6,5.11c-1.69.21-1.78-1.54-2.95-1.83-.59,1-2.81,1.09-1.46,3.23h-1.27c-.78,0-1.24-.15-.81-1.08a1.05,1.05,0,0,0-.21-.86c-.38-.52-.84-1-1.34-1.54l-2.69,1.9.46.54c.62.71.72,1.29-.29,1.78a3.68,3.68,0,0,0-1.23,1.06,1.54,1.54,0,0,0-.33,1.17c.09.3.61.46,1,.69,1.3-2.23,2.14-2.75,3.48-2.25.87.32.84,1.05.65,1.73-.08.32-.46.55-.7.82l-.28-.24a3.55,3.55,0,0,0,.19-.71c0-.4,0-.81,0-1.21a4,4,0,0,0-1.22.26,2.39,2.39,0,0,0-.88,2.8,1.91,1.91,0,0,0,2.58.32,6.27,6.27,0,0,1,4.42-.75,2.29,2.29,0,0,0,1.77-.56,107.24,107.24,0,0,0,17.36-17.11C194.39,208.4,195.2,207.2,196.06,206Zm-35.91-13a19.52,19.52,0,0,1-2.05,0,2.66,2.66,0,0,0-2.46,1c-3.18,3.42-6.32,6.89-9.69,10.12A128.4,128.4,0,0,1,124,221.39c-3,1.86-6.18,3.6-9.24,5.43a2.44,2.44,0,0,1-2.75,0c-1.82-1.07-3.73-2-5.51-3.14a132.75,132.75,0,0,1-16.14-12.21,162.45,162.45,0,0,1-17.53-18.34c-.18-.23-.51-.52-.74-.5-.93.07-1.84.25-2.78.39a1.43,1.43,0,0,0,.06.38,14,14,0,0,0,.86,1.26,149.4,149.4,0,0,0,21.06,21.61c6.42,5.33,13.1,10.27,20.62,13.95.62.3,1.23.94,2.11.45,2.35-1.32,4.78-2.52,7.09-3.91a144.82,144.82,0,0,0,19.27-13.67,163.93,163.93,0,0,0,16.44-16C157.92,195.81,158.93,194.53,160.15,193.07Zm-43.86,40c16.31-.23,31.25-5.18,45-13.69,11.07-6.84,19.87-16.08,27.43-26.81a6.28,6.28,0,0,0-1-.08c-.76.07-1.61-.44-2.24.41s-1.5,1.88-2.22,2.85a92.52,92.52,0,0,1-13.62,14.49A85.39,85.39,0,0,1,151.53,222,79.9,79.9,0,0,1,125.16,230C122,230.38,118.93,231,116.29,233ZM41.81,193.28c3.29,6,8,10.78,12.76,15.45a85.38,85.38,0,0,0,37,21.66A61.74,61.74,0,0,0,109.87,233a24.33,24.33,0,0,0-3-1.92,8,8,0,0,0-2.22-.74c-2.59-.41-5.23-.59-7.79-1.15A80.62,80.62,0,0,1,68,216.65c-9-6.13-16.31-13.89-23-22.37A2.52,2.52,0,0,0,41.81,193.28ZM127.43,197c-1.38,0-2.72,0-4.05,0-.23,0-.61.49-.61.75,0,1.56.14,3.12.16,4.68,0,.72.31,1,1,1a23,23,0,0,1,2.62-.1c.55,0,.83-.06.86-.65s-.23-.87-.84-.82a5.23,5.23,0,0,1-1.31,0,3.32,3.32,0,0,1-.93-.45,4.58,4.58,0,0,1,.9-.48c.3-.08.67.06,1,0a3.43,3.43,0,0,0,.81-.49,3.24,3.24,0,0,0-.78-.67c-.36-.15-.81-.06-1.18-.18s-.44-.38-.66-.58c.23-.15.44-.39.7-.44a2.8,2.8,0,0,1,1.08,0C127.19,198.68,127.57,198.22,127.43,197Zm-20.19,6.38.24-.29c-.86-1.95-1.7-3.91-2.6-5.84a1,1,0,0,0-1.75,0c-.77,1.8-1.45,3.64-2.14,5.48-.07.18.08.44.14.66.25-.07.67-.07.73-.23a1.64,1.64,0,0,1,1.93-1c.8.07,1.65-.16,2.25.72C106.25,203.15,106.83,203.19,107.24,203.35ZM93,197c.94,2,1.79,4,2.74,5.91a1.06,1.06,0,0,0,1.85-.21c.7-1.6,1.39-3.21,2-4.84.1-.28-.1-.67-.16-1-.4.16-1,.21-1.15.5a19.66,19.66,0,0,0-1.05,2.39c-.2.47-.45.92-.78,1.59a32.48,32.48,0,0,1-1.32-3.21C94.83,197,94.19,196.72,93,197Zm39.76,2.58c-1.29-.79-1.61-2.74-3.78-2.39.45.63.69,1,1,1.37,1.11,1.23,2.22,2.44,2,4.31,0,.17.54.61.76.57s.81-.5.78-.71a5,5,0,0,1,1-3.28c.24-.45.56-.86.76-1.33a3,3,0,0,0,.08-1c-.38,0-.86-.1-1.12.09a3.68,3.68,0,0,0-.81,1.14C133.16,198.71,133,199.1,132.74,199.54Zm-16.8-.08h0c.06,1.06.11,2.12.2,3.17,0,.26.19.74.28.73,1.33,0,2.67-.07,4-.21.16,0,.33-.6.33-.92,0-.11-.5-.29-.78-.32a4.48,4.48,0,0,0-1.09.11c-.85.13-1.28-.12-1.27-1.08a23.79,23.79,0,0,0-.23-3.38c0-.27-.51-.72-.68-.68a1.21,1.21,0,0,0-.78.73A9.49,9.49,0,0,0,115.94,199.46Zm-4.45,3.83v.07a21.17,21.17,0,0,0,2.26-.31c.21-.05.34-.46.5-.71-.22-.13-.43-.35-.66-.37a5.39,5.39,0,0,0-1.2.05c-.88.08-1.36-.19-1.34-1.19a15.53,15.53,0,0,0-.17-3.05c-.06-.34-.65-.58-1-.87-.18.29-.5.59-.5.88,0,1.5.1,3,.13,4.48,0,.67.28,1,1,1Zm60.15,17.64,2.4-2-2-2.3-2.34,2.12Zm-14.79,12-.13-.41c-.6-.24-1.19-.51-1.81-.69-.24-.08-.68,0-.77.11a1,1,0,0,0,0,.88c.25.34.69.82,1,.79A6.35,6.35,0,0,0,156.85,232.91ZM154.79,231l0,.32c.51.23,1,.5,1.55.68a3,3,0,0,0,.9,0,5.11,5.11,0,0,0-.15-1.31.86.86,0,0,0-.71-.43A11.22,11.22,0,0,0,154.79,231Zm11.39-28.3.13.35,2.93-.84-.12-.36Zm-5.82,4.93.06.46,2.38-.32-.05-.41Z"/><path class="cls-1" d="M88.39,26.7A33.11,33.11,0,0,0,94,43.17l-4.78,1.18A86.5,86.5,0,0,0,67.75,52.9,89.53,89.53,0,0,0,46,69.33,87.36,87.36,0,0,0,29.9,92.93a72.07,72.07,0,0,0-6.24,26.7,83.36,83.36,0,0,0,2.94,25.68c.08.31.13.63.23,1.15H24.45c-4.16,0-8.33,0-12.49,0-.81,0-1.06-.3-1.21-1a95.82,95.82,0,0,1,2.51-49A97.89,97.89,0,0,1,23.73,74.63,115.31,115.31,0,0,1,38.39,56,109.91,109.91,0,0,1,55.55,41.42,99.92,99.92,0,0,1,75.74,30.58c3.78-1.43,7.69-2.5,11.55-3.71A7.35,7.35,0,0,1,88.39,26.7ZM22.71,107.3a7.41,7.41,0,0,0-4.47,1.78C19.82,108.71,21.68,109,22.71,107.3Zm-1.43-11c1.44-.78,3.42,0,4.59-1.57A5.49,5.49,0,0,0,21.28,96.25Zm2.86,4.59a5.55,5.55,0,0,0-4.34,1.82C21.09,102.84,23.78,101.71,24.14,100.84ZM28.3,89l-.1-.46c-1.58.16-3.3-.21-4.58,1.16l.08.35Zm-6.9,31.45c-1.61,0-3.56,1.21-3.92,2.38C18.38,121.47,20.47,122.08,21.4,120.44Zm-3.56-5.32.12.27c1.61,0,3.53-1,3.47-1.94Zm1.65-26.33-.3.11a2.37,2.37,0,0,0,1.44,2.86Z"/><path class="cls-1" d="M133.15,43.58c1.31-2.74,2.79-5.31,3.79-8.07s1.5-5.69,2.28-8.76c2.22.59,4.55,1.15,6.83,1.83a85,85,0,0,1,18.19,7.73,95.68,95.68,0,0,1,22.58,17.88,108.25,108.25,0,0,1,26.6,53.64,90.91,90.91,0,0,1,1.39,23.46c-.4,4.64-1.25,9.25-1.94,13.87a1.18,1.18,0,0,1-.8.75c-4.09.07-8.18.08-12.27.1a2.52,2.52,0,0,1-.51-.13c.32-1.88.66-3.74,1-5.6a90.15,90.15,0,0,0,.22-27.29c-1.83-13.25-7.17-25-15.14-35.69a89.34,89.34,0,0,0-32.17-26.82,87.6,87.6,0,0,0-16.42-6C135.52,44.18,134.28,43.87,133.15,43.58ZM197.8,93a4.46,4.46,0,0,0,3.29,2.15.68.68,0,0,0,.61-.29.72.72,0,0,0-.16-.65A4.87,4.87,0,0,0,197.8,93Zm4.07-14.32-.48-.17A28.66,28.66,0,0,0,200,81.09c-.1.23.22.92.38.92.36,0,1-.17,1.07-.39A25.81,25.81,0,0,0,201.87,78.71Zm-1.79,20.54a3.42,3.42,0,0,0,4.17,1.74C203.2,99.63,201.66,99.7,200.08,99.25Zm2.84,13.28a8.42,8.42,0,0,0,4,2.64A6.36,6.36,0,0,0,202.92,112.53Zm6.15,1.93.32.27a2.51,2.51,0,0,0,2.06-3.21Zm.53,7.69c1-1.32,2.8-1.84,3.28-3.58C211.41,119.42,210.08,120.39,209.6,122.15Zm-4.13-14.64a4.64,4.64,0,0,0-3.69-1.94C202.58,107,204.21,106.9,205.47,107.51Zm1.71-7.66.28.34c.57-.34,1.32-.55,1.65-1s.06-1.17.06-1.77l-.26,0Zm-.27,21.91a4.77,4.77,0,0,0-3.31-2.11A4.84,4.84,0,0,0,206.91,121.76Zm-10.1-39.62c-1-1.28-3.18-2.25-4.49-1.88Zm-.31-6.22.28-.28-1.89-2C194.58,75.34,195,75.87,196.5,75.92Zm-1,10.78-.06.4,3.32.77.09-.43Zm11.4,5.09-.37-.3-1.45,2,.3.22Z"/><path class="cls-1" d="M109.2,2.51l.18,2.09.34.18L114,0l2.64,1.46c5.3,2.88,10.66,5.61,16.66,6.75,1.25.24,2.52.4,3.78.54.56.06.87.21.84.85-.33,7.5-.25,15.05-1.89,22.44a30.43,30.43,0,0,1-7.17,13.48,64.41,64.41,0,0,1-14.53,12,1.67,1.67,0,0,1-1.46,0c-7.85-5-15-10.73-19.46-19.11a26.9,26.9,0,0,1-2.82-9.83c-.5-4.3-.75-8.63-1.07-12.95-.14-1.82-.13-3.65-.31-5.46-.12-1.17.33-1.5,1.42-1.59C96.5,8.19,101.83,6.06,107,3.52c.62-.31,1.21-.68,1.82-1C108.93,2.47,109.06,2.51,109.2,2.51ZM99.08,29l.2-1.22-.23-.07c-1.08,2.67-2.15,5.34-3.26,8.09,1.66,0,2.2-.4,2.52-1.54l-1.25-.11c.27-.84.47-1.61.77-2.34a8.89,8.89,0,0,1,.76-1.29c-.3.85-.63,1.7-.88,2.56-.18.62.21.56.69.54,2.29-.06,4.58-.16,6.86,0a36.19,36.19,0,0,1,4.47.82c-3.54-2.1-7.25-1.83-11-1.74a4,4,0,0,1,.08-.72c.6-1.68,1.13-3.39,1.84-5a10.46,10.46,0,0,1,1.56-2L99.8,30.68c5,.32,9.76.72,13.38,4.55a2.15,2.15,0,0,0-.36-1,3.11,3.11,0,0,1-.44-3.15,3.12,3.12,0,0,0-1.11-3.78A23.27,23.27,0,0,0,105,24c-1.7-.68-1.69-.69-2.57.8,0,.09-.16.14-.24.22L102,24.5a5.64,5.64,0,0,0-2.42,3.6A5.14,5.14,0,0,1,99.08,29Zm26.1-3.46c2.12,1.85,2.36,4.57,3.43,7.11-3.86-.11-7.54-.3-10.85,1.68a31,31,0,0,1,11.06-.77c.31,0,.64-.22,1-.38l.25,1-1.09.26-.15.34L131,36.11l.23-.28a3.4,3.4,0,0,0-.14-.72c-.68-1.73-1.42-3.44-2.06-5.18-.43-1.15-1.46-2-1.86-3s-1.52-1.57-2.21-2.48l.16.88L124,23.21c-1.5.61-3,1.1-4.45,1.83a24.49,24.49,0,0,0-4,2.57c-1.3,1-1.37,1.68-.71,3.14a2.62,2.62,0,0,1-.23,3.14,5.06,5.06,0,0,0-.64,1.39l.27.17c3.37-4.18,8.19-4.41,13.17-4.74Zm-15.07-5.44c-.39,1.81,1,5.51,2.35,6.23.4-4.61.8-9.2,1.22-13.91.38,4.72.76,9.32,1.16,14.24a9.58,9.58,0,0,0,2.39-6.47L116,21c.6-1.09,1.34-2.07,1.08-3.5l-1.09.7c.26-1.14.51-2.22.82-3.56l-1.07.5c.34-2.68-1.5-4.6-2.13-7-.77,2.44-2.71,4.45-2.3,7.26l-.55-.78c-.7,1.39.29,2.42.67,3.74l-1.25-.8-.35.2c.43,1.06.86,2.13,1.34,3.3Zm21.7,17,.1-.41a2.55,2.55,0,0,0-.88-.37c-4.38-.06-8.75-.12-13.13-.1a3.83,3.83,0,0,0-3,1.15,1.65,1.65,0,0,1-2.47.1,3.81,3.81,0,0,0-2.82-1.15c-1.1,0-2.19-.18-3.28-.18-3.28,0-6.57,0-9.85.12a3.89,3.89,0,0,0-1.18.42l.11.33c.25,0,.5.07.74.07,4,0,8.1,0,12.15,0,1.28,0,2.54,0,3.63,1.09s2.22,1.13,3.45-.11a3.58,3.58,0,0,1,2.85-1l11.39,0ZM113.75,18.45l-.25,0a.86.86,0,0,0-.11.29c-.16,4.12-.3,8.24-.46,12.36a4.09,4.09,0,0,1-.13.56c-.09.43-.34.9-.25,1.28a7.83,7.83,0,0,0,.79,1.62,2.31,2.31,0,0,0,1.28-3.14,4.22,4.22,0,0,1-.32-1.59c-.12-3.35-.19-6.71-.3-10.06A8,8,0,0,0,113.75,18.45ZM114,36.17l.35.39a10.59,10.59,0,0,1,6.11-3.75,73.63,73.63,0,0,1,7.48-.9c-.24-.2-.52-.64-.8-.65a18.25,18.25,0,0,0-10.64,2.65A21.26,21.26,0,0,0,114,36.17ZM99.19,31.91l.17.34A16.68,16.68,0,0,1,112.84,36a5.44,5.44,0,0,0-2.58-2.46,19.5,19.5,0,0,0-10.1-2.27C99.83,31.31,99.51,31.69,99.19,31.91Z"/><path class="cls-1" d="M87.79,21.79a19.22,19.22,0,0,1,.29,2.58c0,.27-.45.71-.76.79A85.22,85.22,0,0,0,73.4,29.73,105.38,105.38,0,0,0,52.05,41.91,117.63,117.63,0,0,0,15.89,85.72a93.16,93.16,0,0,0-7,22,90.85,90.85,0,0,0-1.59,22.67c.28,4.69,1,9.35,1.57,14,.07.63.2,1.27.32,2a14.4,14.4,0,0,1-2.3.1,1.21,1.21,0,0,1-.74-.84c-.65-4.37-1.5-8.72-1.8-13.11A99,99,0,0,1,7.74,99.1a104.62,104.62,0,0,1,17.4-34.86A116.74,116.74,0,0,1,54.27,36.5,150.38,150.38,0,0,1,68.2,28.7C74.34,25.52,81,23.59,87.79,21.79Z"/><path class="cls-1" d="M214.6,146c.52-4.06,1.17-7.95,1.52-11.87a101.63,101.63,0,0,0-2.42-32.42A111.92,111.92,0,0,0,199.3,68a96.06,96.06,0,0,0-18-21.37A94,94,0,0,0,140,25.26c-.72-.15-1-.41-.83-1.18a12.59,12.59,0,0,0,.15-1.85c0-.06.07-.12.23-.36,2.32.58,4.73,1.11,7.08,1.81a93.74,93.74,0,0,1,19.23,8.06,100.32,100.32,0,0,1,21.2,16,104.58,104.58,0,0,1,19.64,26.7,110.3,110.3,0,0,1,10.81,30.77,112.3,112.3,0,0,1,2,20.69,129.45,129.45,0,0,1-1.6,18.32c-.17,1.15-.45,2-1.93,1.74A5,5,0,0,0,214.6,146Z"/><path class="cls-1" d="M97.19,47.3c-2.22.48-4.35.91-6.47,1.42A86.15,86.15,0,0,0,65.86,59.34a80.76,80.76,0,0,0-18.94,16c-9,10.42-15.28,22.22-17.63,35.91A72.52,72.52,0,0,0,31.53,145c.42,1.39.38,1.41-1.12,1.5-1,.07-1.72.07-2-1.19-.81-4-1.9-7.88-2.54-11.88a72.41,72.41,0,0,1-.29-17.16A68.84,68.84,0,0,1,34.86,87a83.21,83.21,0,0,1,24.53-27,95,95,0,0,1,18.16-10,84.14,84.14,0,0,1,17-5,1.39,1.39,0,0,1,1.08.41A22.68,22.68,0,0,1,97.19,47.3Z"/><path class="cls-1" d="M129.67,47.56c.67-.83,1.2-1.57,1.82-2.22a1.2,1.2,0,0,1,1-.17,83.17,83.17,0,0,1,27.63,10.95,87.74,87.74,0,0,1,28.08,28.13c6.2,10,10.28,20.82,11.11,32.65a113.78,113.78,0,0,1,.17,14.77c-.29,4.46-1.3,8.87-2,13.3-.13.88-.55,1.26-1.47,1.16a12.09,12.09,0,0,0-1.88.07c.45-2.2.88-4.3,1.3-6.4a78.28,78.28,0,0,0,1.22-18.65,69.33,69.33,0,0,0-3.92-20.47,80.3,80.3,0,0,0-9.58-18.28,83.54,83.54,0,0,0-33.59-28.51c-6-2.84-12.39-4.54-18.82-6.07Z"/><path class="cls-1" d="M136.32,146.41h-45v-.11c2.24-.48,4.51-.86,6.72-1.46,3.87-1.07,7.73-2.17,11.52-3.49a27.13,27.13,0,0,0,4.37-2.59c.25-.15.74-.26.91-.13,3,2.36,6.66,3.1,10.18,4.13s7.24,2.06,10.85,3.09a3.18,3.18,0,0,1,.57.25Z"/><path class="cls-1" d="M74.7,79.74c-1.25.05-2.5.2-3.74.14A5.7,5.7,0,0,0,66.85,81a1.35,1.35,0,0,1-1.24-.1A5.13,5.13,0,0,0,61.9,80c-1.65.16-3.33,0-5.19,0a3.68,3.68,0,0,1,.7-.54,12.66,12.66,0,0,1,7-.87,9,9,0,0,0,4,0c2.13-.46,4.27.17,6.37.59Z"/><path class="cls-1" d="M83.37,71.06c-.3,0-.61,0-.91-.06-1.9-.28-3.77-.46-5.46.8a1,1,0,0,1-.91.07c-2.47-1.67-5.12-1-7.75-.7A1.47,1.47,0,0,1,68,71.1a2.58,2.58,0,0,1,2.11-1.36c2-.4,4.08-.92,6.06.33.29.19.91,0,1.34-.19a6.74,6.74,0,0,1,4.92.05,6.3,6.3,0,0,1,1.13.83Z"/><path class="cls-1" d="M152.84,80.75a8.43,8.43,0,0,1,1.28-.56c2.16-.53,4.35-1.15,6.55-.43a4.73,4.73,0,0,0,2.86,0,12.18,12.18,0,0,1,3.76,0c.37,0,.71.4,1.07.61l-.06.36a13.21,13.21,0,0,0-2.27,0,14.77,14.77,0,0,0-3.29.94,1.71,1.71,0,0,1-2-.07,4.14,4.14,0,0,0-3.19-.74c-1.53.11-3.07,0-4.61,0Z"/><path class="cls-1" d="M143.31,71.78a4,4,0,0,1,1-.83c2.16-.82,4.32-1.27,6.53-.08a1.66,1.66,0,0,0,1.11-.07,9.13,9.13,0,0,1,5-.41c.7.16,1.21.5,1.1,1.4l-2.68-.29a4.14,4.14,0,0,0-3.18.88,1.27,1.27,0,0,1-1.76.13c-2.2-1.68-4.6-.65-6.93-.48Z"/><path class="cls-1" d="M135.13,62.44a3.52,3.52,0,0,1,3.2-.06,2.41,2.41,0,0,0,1.48,0c1.35-.5,2.52-.39,3.08.24l-3.66,1a1.1,1.1,0,0,1-.54,0C137.49,63.2,136.3,62.81,135.13,62.44Z"/><path class="cls-1" d="M93,61.59c-1.12.37-2.21.76-3.32,1.09a1.65,1.65,0,0,1-.84-.1c-1-.32-2-.67-3-1,.79-.59,1.71-.29,2.67,0a3.76,3.76,0,0,0,1.7,0C91.13,61.38,92.08,61,93,61.59Z"/><path class="cls-1" d="M82.91,79.28l-5,.46C78.67,78.71,81.67,78.38,82.91,79.28Z"/><path class="cls-1" d="M149.75,81l-3.59-.39A3.19,3.19,0,0,1,149.75,81Z"/><path class="cls-2" d="M120.06,128.36a11.4,11.4,0,0,1-1.69,2c-1.27.92-2.49.26-2.57-1.32a7.31,7.31,0,0,1,1.71-4.63c1.06-1.5,2.09-3,3.13-4.57l-.18-.34c-.38.12-.86.12-1.12.37-1,.89-1.94,1.87-2.91,2.82l-.76.71-.4-.1c.15-1.56,0-3.26.54-4.67a21.46,21.46,0,0,1,3.06-5c1.67-2.18,4.15-2.22,6.6-2a4.14,4.14,0,0,0,3.62-.94l-4.67-.55.61-2.33-.24-.14a6.74,6.74,0,0,0-.94,1.07,3.56,3.56,0,0,1-2.29,1.55c-.61.18-.91,0-.86-.67s-.14-1.31-1.18-1.21c.49,1.32-.42,2.11-1.11,3-1,1.24-2,2.45-3.11,3.62-.36-2.8-.64-5.61,1.17-8,1.66-2.15,3.58-4.09,5.58-6.33-2.83,1-5.23,2.19-6.85,4.65l-.3,0c0-1.82-.41-3.78.12-5.44s2-2.92,3.14-4.45L115,97.28c-.38-1.55-.73-3-1.09-4.5l-.45,0c-.08,1.45-.16,2.89-.27,4.69l-3.52-2.18-.2.1a5.25,5.25,0,0,0,.44,1.06,3.26,3.26,0,0,0,.93.92c3.29,1.87,2.43,5,2.58,8.14-2.39-2.15-4.7-3.86-7.62-4.43l-.42.48a7.84,7.84,0,0,1,1.09.65c1.48,1.23,3,2.45,4.41,3.75a6.61,6.61,0,0,1,2.09,5.23,24.34,24.34,0,0,1-.18,3.27c-1.74-1.64-4.28-2.53-4.06-5.8a6.63,6.63,0,0,0-.47.64c-.8,1.69-1.32,1.8-2.66.43a24.84,24.84,0,0,1-1.72-2.18,7.55,7.55,0,0,0,0,1.53c.26,1.13-.32,1.44-1.28,1.44H98l1.66,1.28-.23.44c4.89-1.46,8.71.08,11.79,3.89,1.64,2,1.58,4.34,1.44,6.68l-.27.15-4.53-4.17-.43.26c.57,1.36,1.14,2.71,1.77,4.19l-5.17.3-.09.51a4.79,4.79,0,0,0,1.58.54c1.31-.05,2.71.24,3.84-.82a.87.87,0,0,1,.8.16c1.31,1.58,2.36,3.27,2.17,5.44A1.55,1.55,0,0,1,111.1,131c-.86.18-1.67.2-2.19-.74-.33-.59-.72-1.16-1.15-1.85-1.1.92-2,2.19-3.63,1.2a3,3,0,0,1-1.4-3.52c-1.38-.27-2.86.76-4-.71-.85-1.16-1.73-2.22-.81-3.85a22.65,22.65,0,0,1-2.22.59c-1.14.17-1.61-.27-1.89-1.4a1.5,1.5,0,0,0-.75-.89c-1.75-.8-2.08-2.51-.62-3.75a9.74,9.74,0,0,1,1.79-1c.3-.15.63-.27.94-.4v-.29L94.06,114a3.69,3.69,0,0,1-2.47-2c-.61-1.55-.14-2.34,2-3l-.55-.76a2.34,2.34,0,0,1,1.5-3.78,14.64,14.64,0,0,0,2.78-.6,15,15,0,0,1-1.34-1c-1.25-1.16-1.14-2.63.39-3.38A7.51,7.51,0,0,1,99,99a7.58,7.58,0,0,1,1.68.28c-1-1.47-2.31-2.77-.66-4.19,1.28-1.1,2.79-.74,4.51,0a9.14,9.14,0,0,0-.5-.85c-.64-.79-1.28-1.59-.64-2.66a2.79,2.79,0,0,1,2.81-1.31c.56,0,1.12.19,1.71.29-.48-2.52.47-3.82,2.81-4,.21,0,.5-.07.64,0,.86.68,1.58.32,2.47,0,3-1.21,5,.27,5,3.77,1.74-.77,3.47-1.4,4.86.55.83,1.17.85,1.15-.42,3.6,2-.5,3.88-.4,5,1.57.81,1.41,0,2.49-1.19,3.67.85,0,1.43.05,2,0a3.44,3.44,0,0,1,3.32,1.49,1.93,1.93,0,0,1-.14,2.84,6,6,0,0,0-.4.53,17.49,17.49,0,0,1,2.89,1.8c1,.94.54,2.07,0,3a6.18,6.18,0,0,1,1,1.7,2.12,2.12,0,0,1-1.4,2.46c-.75.33-1.52.62-2.28.93l0,.3a10.58,10.58,0,0,1,1.81.56,6.16,6.16,0,0,1,2,1.37,1.8,1.8,0,0,1-1.21,3,1.35,1.35,0,0,0-1.2,1,2.93,2.93,0,0,1-1.58,1.23,5.47,5.47,0,0,1-1.83,0,2.77,2.77,0,0,1-2.32,3.3,1.1,1.1,0,0,0-.59.7,1.58,1.58,0,0,1-1.83,1.34.89.89,0,0,0-.71.42C123.4,130.17,121.71,130.41,120.06,128.36Zm3.56-13.18c-1.28.31-2.23.52-3.17.77a3.2,3.2,0,0,0-.7.38c.11.16.17.4.32.48,1.3.73,5.42-.09,6.52-1.31Zm-22.47.63a6.32,6.32,0,0,0,5.24.61c.2-.07.46-.32.47-.5s-.26-.41-.46-.5C104.57,114.51,102.91,115.69,101.15,115.81Zm17.26,8.65c1,1.22,4,1.24,4.69,0Z"/><path class="cls-2" d="M71.15,93.42l-1.4.07a5,5,0,0,0,.55.7c6,4.76,11.89,9.54,17.87,14.27.58.46.74.74.35,1.39a3.66,3.66,0,0,0-.3,1.13c-.84.22-2,.2-2.18.63s.17,1.49.35,2.49c-2.83-1.91-5.74-3.65-8.37-5.74s-5-4.57-7.51-6.93c-.06.13-.23.39-.35.67A46,46,0,0,1,61.86,115c-.19.22-1,.31-1,.19-.85-1.34-2.25-1.49-3.6-1.78-.1,0-.17-.11-.39-.27l1.83-2.27c3.12-3.87,6.12-7.82,8.11-12.43.1-.24.29-.48.27-.71a7.08,7.08,0,0,0-.31-1.18,3.38,3.38,0,0,0-.89.45,126.94,126.94,0,0,1-19,15.67c-.39.26-.78.69-1.19.72a1.38,1.38,0,0,1-1.11-.62c-.52-1.21-1.43-1.17-2.45-1-.71.1-1.42.16-2.46.28.47-.5.68-.77.93-1Q51.31,101.66,62,92.27c1.12-1,2.18-2,3.31-3,.22-.2.76-.41.88-.31C67.79,90.32,69.35,91.77,71.15,93.42Z"/><path class="cls-2" d="M175.89,119c-1.22-.84-2.42-1.73-3.68-2.52-1-.62-2.06-1.49-3.13-1.55-1.23-.08-2.75-.26-3.76,1-3.82-3.73-6.75-8.17-9.67-12.65-1.66,1.49-3.13,3-4.76,4.22-3.23,2.49-6.57,4.84-9.82,7.29-.91.69-1.43.34-2-.42a3.44,3.44,0,0,0-.5-.51c0-1.32,0-2.61.11-3.9,0-.25.33-.53.57-.72,4.31-3.25,8.64-6.48,12.94-9.74.93-.7,1.78-1.51,2.64-2.29s1-.91,1.92.18l6.15,7.69a110.69,110.69,0,0,0,12.68,13.3l.46.42Z"/><path class="cls-2" d="M133.39,74.9c-2.35-.16-4.42-.13-6.36-1-.54-.24-1.3.06-1.92-.08-1.23-.29-2.44-.71-3.65-1.08-.35-.1-.79-.35-1-.23-1.12.6-2.13.07-3.21-.11-1.82-.31-3.67-.46-5.51-.63a2.2,2.2,0,0,0-1.36.21,2.06,2.06,0,0,1-2.27.08c-1.46-.66-3.16-.92-4.2-2.38A2.51,2.51,0,0,0,103,69c-1.22-.69-1.25-1.07.07-1.85A22.3,22.3,0,0,1,113.42,64a22.93,22.93,0,0,1,14.72,4,18.87,18.87,0,0,1,5.41,5.49,2.2,2.2,0,0,1,.24,1.22C133.79,74.77,133.38,74.91,133.39,74.9Z"/><path class="cls-2" d="M187.7,115c-1.85,0-3.56-.25-5.12.91l1,1.23-.13.23a5,5,0,0,1-.88-.4c-5.61-3.82-11.19-7.73-16-12.6-3.41-3.49-6.48-7.31-9.72-11-.46-.51-.33-.91.13-1.29.81-.68,1.67-1.3,2.42-2s1.06-.46,1.61.11c3,3.06,6,6.11,9,9.12a191,191,0,0,0,16.36,14.53C186.89,114.2,187.28,114.62,187.7,115Z"/><path class="cls-2" d="M75.39,95.82c.5-.57.82-1,1.21-1.36,2.52-2.32,5.06-4.62,7.58-6.94.55-.5.9-.2,1.31.16l8.07,7c.74.64,1.5,1.25,2.37,2a5.18,5.18,0,0,1-.89.56,4.89,4.89,0,0,0-3.18,4c-.51,2.3-.54,2.26-2.49,1.08-3.53-2.13-7.08-4.22-10.62-6.34-.51-.31-.85-.36-1.3.16C76.69,97,76.25,95.85,75.39,95.82Z"/><path class="cls-2" d="M135.8,103.18A3.89,3.89,0,0,0,134,99.53c-.68-.43-.4-.84,0-1.23q2.34-2.3,4.71-4.58c1.47-1.42,3-2.81,4.42-4.25.45-.45.76-.45,1.18,0,2.29,2.3,4.59,4.59,6.85,6.92.23.23.25.67.36,1-.41,0-1,.3-1.21.12-1.13-.93-1.84-.2-2.73.44-3.35,2.4-6.76,4.72-10.15,7.06-.52.36-1.51-.27-1.66-1A4,4,0,0,1,135.8,103.18Z"/><path class="cls-2" d="M188.06,109.72c-7.45-4.69-13.83-10.3-20.25-16.23,1.68-1.16,3.18-2.25,4.75-3.22.2-.12.89.28,1.2.6,3.21,3.34,6.38,6.72,9.57,10.08,1.39,1.45,2.85,2.83,4.22,4.3C188.69,106.48,188.48,108,188.06,109.72Z"/><path class="cls-2" d="M56.84,93.89,40.39,107c-1.06-2.26-2.55-.33-4-.82a10.78,10.78,0,0,1,1.31-2.32c1.94-2,3.94-4,6-5.91,2.57-2.37,5.25-4.63,7.86-7A.92.92,0,0,1,53,91C54.15,92,55.41,92.82,56.84,93.89Z"/><path class="cls-2" d="M76,123.65c-.74-1.85.37-2.7,2.93-2.38.87-1.27,2.17-1.25,3.43-1,.75.13,1.47.59,1.2,1.61,3.12,0,3.93.69,4.22,3.38,3,.75,3.66,1.46,3.81,4.26a1.88,1.88,0,0,1-2-1.15,3.82,3.82,0,0,0-.79-1.37c-.88-.87-1.88-1.61-2.77-2.47a7.12,7.12,0,0,0-8.18-.87c-1.6,1-3.72,1.87-4.15,4.25l-.38,0a4.31,4.31,0,0,1-.53-1.56C72.93,124.44,74.69,124.35,76,123.65Z"/><path class="cls-2" d="M152,124c1.14.48,2.39.86,2.64,2.24a8.07,8.07,0,0,1-.11,2,9.24,9.24,0,0,1-1.45-1.26C152,125.5,151,124,148.91,123.8a14.35,14.35,0,0,1-1.8-.45,3.54,3.54,0,0,0-2.72.4c-1.38.78-2.87,1.36-4.32,2-.73-1.89,1.31-3.49,3.77-3.14.18-.53.24-1.4.53-1.48,1.1-.33,2.25-1.09,3.43-.24a1.8,1.8,0,0,0,1.57.36A2.22,2.22,0,0,1,152,124Z"/><path class="cls-2" d="M163.66,125.36c.33-.6.47-1.23.83-1.42a3.1,3.1,0,0,1,2.93.22,2.71,2.71,0,0,0,1.2.34c1.38,0,1.89.43,2.17,1.88.05.27.43.55.73.67,2,.78,2.52,1.65,2.23,3.72-.05.35.25.74.27,1.33-.2-.19-.49-.35-.59-.59-1.55-3.42-4.84-5.83-8.73-4.81-1.49.39-2.95.91-4.54,1.4a1.5,1.5,0,0,1,.34-1.69A2.81,2.81,0,0,1,163.66,125.36Z"/><path class="cls-2" d="M52.57,131.38c-.68-.25-.74-.86-.62-1.5.28-1.61,1.72-1.78,2.92-2.26.23-.66-1.12-1.27-.09-1.9.88-.54,1.76-1.24,3-.59,1-1.48,2.49-1.11,3.85-.94.4,0,.71.89,1.14,1.47a3.43,3.43,0,0,1,4.16,2.62,2.42,2.42,0,0,1-.08.79c-.22-.08-.5-.09-.65-.23a9.58,9.58,0,0,0-5.06-2.36c-2.79-.53-4.78.88-6.68,2.49A14.53,14.53,0,0,0,52.57,131.38Z"/><path class="cls-2" d="M190.29,133.81c-.4-.34-1.07-.63-1.13-1-.2-1.28-1.3-1.44-2.09-2-2.13-1.57-4.34-1.35-6.61-.43-.11,0-.21.13-.3.13l-1.48-.08c.25-.52.38-1.32.78-1.5a12.63,12.63,0,0,1,2.83-.53c.13-.7.91-.69,1.7-.59,1,.12,2.19.12,2.43,1.5,2-.23,3,.6,3.07,2.61,0,.21.23.41.36.61.23.37.47.73.71,1.1Z"/><path class="cls-2" d="M35.47,135.41a1.75,1.75,0,0,1,.89-2.26c.58-.35,1.35-.64.56-1.54-.11-.13.11-.66.31-.91A2,2,0,0,1,39.9,130c.44-1.6,1.77-1.54,3-1.47.48,0,.92.62,1.57,1.1,1.91-.54,3.27.13,3.28,1.93a24.36,24.36,0,0,1-2.31-.85,7,7,0,0,0-8.2,2.57A20.56,20.56,0,0,1,35.47,135.41Z"/><path class="cls-2" d="M128.51,129.63c.74-1.16,1.41-2.36,2.23-3.46a.9.9,0,0,1,1.62.17,26.1,26.1,0,0,1,1.51,3.72c.1.33-.25.8-.4,1.21a4.44,4.44,0,0,1-.91-.93,21.62,21.62,0,0,1-.88-2.18l-2.84,1.62Z"/><path class="cls-2" d="M97,129.1a27,27,0,0,1-1.64,2.16c-.22.23-.68.25-1,.36-.06-.37-.27-.78-.16-1.09a13.78,13.78,0,0,1,1.1-2.37,1.43,1.43,0,0,1,2.68,0,19.21,19.21,0,0,1,1.33,2.38c.14.32,0,.78-.06,1.17a3.78,3.78,0,0,1-.87-.62C97.86,130.48,97.48,129.85,97,129.1Z"/><path class="cls-2" d="M136.3,130.39c0-1.4,1.83-3.14,3-2.93a1.38,1.38,0,0,1,.67.46c0,.06-.06.38-.18.46-.95.65-1.91,1.28-2.89,1.9A1.67,1.67,0,0,1,136.3,130.39Z"/><path class="cls-2" d="M156.38,131.24c.23-1.82,1.76-2.87,3.1-2.19C159.24,130.66,158.59,131.13,156.38,131.24Z"/><path class="cls-2" d="M70.35,132.22a16.9,16.9,0,0,1-2.51-1c-.27-.15-.27-.76-.39-1.17.37-.07.81-.32,1.08-.19C69.39,130.28,70.33,130.7,70.35,132.22Z"/><path class="cls-2" d="M175.09,133.35a6.88,6.88,0,0,1,1-1.24c.18-.14.63.07.95.12-.06.32,0,.79-.23.93a6.41,6.41,0,0,1-1.42.58Z"/><path class="cls-2" d="M136.26,154.94a29.5,29.5,0,0,1,3.61-.29,2.35,2.35,0,0,1,1.42.84c2.58,2.93,5.1,5.91,7.66,8.86,1.48,1.7,3,3.37,4.58,5.17a3.16,3.16,0,0,0,.17-.72c-.11-3.47-.27-6.93-.34-10.4a4.71,4.71,0,0,0-1.14-3,9.47,9.47,0,0,1-.54-.85,6.5,6.5,0,0,1,1-.14c2.33,0,4.67-.08,7-.09a4,4,0,0,1,1,.26c-.13.35-.17.81-.41,1-1,.86-.86,2-.85,3.06q.08,7.29.22,14.57c0,1.57.06,3.14.2,4.7a31.63,31.63,0,0,0,.64,3.16H155.1c-.15-2.36-2-3.51-3.31-5-2.26-2.68-4.64-5.25-7-7.86a8.16,8.16,0,0,0-.61-.56,5.87,5.87,0,0,0-.13.92c.1,3.18.12,6.36.36,9.52a7.39,7.39,0,0,0,1.18,2.39c.1.21.15.44.28.8-.48,0-.83.06-1.19.06-2.11,0-4.23,0-6.35,0-.36,0-1-.43-1-.6.07-.61-.85-1.37.29-1.9a1.7,1.7,0,0,0,.64-1.34c0-2.34,0-4.68-.09-7-.09-3.18-.17-6.35-.33-9.53C137.74,158.89,137.87,156.75,136.26,154.94Zm8,25.45,0-.1-5.55-.27v.37Z"/><path class="cls-2" d="M109.64,154.54c.77-.06,1.44-.15,2.12-.15q4-.06,8.1,0c2.67,0,5.25.36,7.4,2.16a8.27,8.27,0,0,1,3,6.87,9,9,0,0,1-3.54,7c-.75.61-.91,1.11-.37,1.89,1.82,2.64,3.62,5.3,5.43,7.94l.76,1.13h-3.63c-1.13,0-2.46.41-3.33-.06s-1-1.82-1.47-2.74c-.9-1.63-1.86-3.22-2.77-4.85a1.49,1.49,0,0,0-1.6-.87,3.64,3.64,0,0,1-.66,0c-2.41-.08-2.36-.08-2.36,2.38a6.91,6.91,0,0,0,1.7,5,.81.81,0,0,1,.19.38,3.77,3.77,0,0,1,0,.63c-.86,0-1.68,0-2.5,0-1.64,0-3.29,0-4.93,0-.54,0-.8-.13-.78-.74,0-.78-.45-1.67.66-2.16.19-.08.23-.66.22-1q-.06-7-.16-14c0-1.49-.1-3-.09-4.48a5.66,5.66,0,0,0-1.13-3.58A3.42,3.42,0,0,1,109.64,154.54Zm6.79,9.11h0c0,.8.08,1.6.13,2.4.15,2.44.15,2.43,2.65,2.09,1.58-.21,3.11-.48,4.15-1.87a5.13,5.13,0,0,0,.66-4.88,3.54,3.54,0,0,0-3.55-2.41c-1.06-.06-2.12-.06-3.17-.12-.73-.05-.95.27-.93,1C116.46,161.1,116.43,162.37,116.43,163.65ZM112.17,180v.1h4.76V180Z"/><path class="cls-2" d="M173.33,177.72l2.13,3.12a5.91,5.91,0,0,1-1.11.29c-2.41.08-4.81.16-7.22.18a1,1,0,0,1-.71-.57,2.37,2.37,0,0,1,.06-1.59c.58-.88,1.63-1.5,2.06-2.43,3.06-6.6,7-12.72,10.63-19l.06-.09c.8-1.46.8-1.46.21-3.13,1.73,0,3.38,0,5,0a19.44,19.44,0,0,1,2.41.11c.88.13,1.15.58.91,1.56a4.8,4.8,0,0,0,.14,2.4c1.86,6.19,3.73,12.37,5.69,18.52a16.22,16.22,0,0,0,1.71,3c.13.21.23.43.44.82a10,10,0,0,1-1.14.14c-2.45,0-4.89,0-7.34,0-.32,0-.63-.31-.95-.48l.73-.73c-.88-1.32.86-1.18,1.17-1.82-.29-.73-.63-1.45-.88-2.2a2.08,2.08,0,0,0-2.4-1.6c-2.81.13-5.62,0-8.43,0a1.9,1.9,0,0,0-2.08,1.2C174.07,176.28,173.63,177.11,173.33,177.72Zm11.52-9.19-2.18-5.66-4,5.66ZM174,180.22v-.17h-6v.17Zm15-.24,0,.13h4.82V180Z"/><path class="cls-2" d="M105.87,181.18c-.87,0-1.44.09-2,.09-2,0-4,0-6-.05-.36,0-1-.38-1-.6,0-.78.61-.46,1-.43l6,.29,0-.26a7.53,7.53,0,0,0-1.06-.16c-1.49-.07-3-.07-4.48-.17a4.73,4.73,0,0,1-1.26-.44l1-1.13c-.41-.93-.86-2.08-1.45-3.15a1.46,1.46,0,0,0-1.1-.53c-3.4-.08-6.79-.11-10.19-.11a1.09,1.09,0,0,0-.77.45c-.61,1-1.16,2-1.54,2.68L84.9,181c-.73.05-1.15.11-1.56.11-2,0-4,0-5.92,0-.35,0-1-.21-1-.39-.11-.61-.24-1.61.07-1.83,1.45-1,1.83-2.62,2.48-4q3.8-8.25,7.38-16.6a15.07,15.07,0,0,0,.58-3.16h8.8c-1.2,1.48-.39,2.83.14,4.07,2.68,6.39,5.44,12.75,8.21,19.1A27.57,27.57,0,0,0,105.87,181.18ZM93.87,169,91.17,163h-.36L87.24,169Zm-11,11.08v-.13H79.8v.13Z"/><path class="cls-2" d="M49.45,178.42,53.1,173a8.26,8.26,0,0,0,1.54,1.2,14.93,14.93,0,0,0,9,1.55,6.68,6.68,0,0,0,1.24-.41,2.1,2.1,0,0,0,1.57-2.12,2.28,2.28,0,0,0-1.73-2.27c-1.4-.41-2.84-.69-4.27-1-2.67-.54-5.36-.89-7.79-2.38A6.64,6.64,0,0,1,51.43,157,11,11,0,0,1,59,154.11,19,19,0,0,1,67,155.57a2.24,2.24,0,0,0,2.7-.34c.16-.15.44-.17.93-.34a7.62,7.62,0,0,1-.43,1.27c-.8,1.39-1.67,2.74-2.43,4.16-.41.76-.88.79-1.49.38a13.36,13.36,0,0,0-6.87-1.92,4.3,4.3,0,0,0-4,1.4,2,2,0,0,0,.87,3.37c2.33.73,4.74,1.18,7.09,1.83A24.33,24.33,0,0,1,68.22,167c3.62,1.91,4.68,6.25,2.7,10a8,8,0,0,1-5.65,4.12A18.54,18.54,0,0,1,51.54,179,9.33,9.33,0,0,0,49.45,178.42Z"/><path class="cls-2" d="M196.06,206c-.86,1.16-1.67,2.36-2.59,3.47a107.24,107.24,0,0,1-17.36,17.11,2.29,2.29,0,0,1-1.77.56,6.27,6.27,0,0,0-4.42.75,1.91,1.91,0,0,1-2.58-.32,2.39,2.39,0,0,1,.88-2.8,4,4,0,0,1,1.22-.26c0,.4,0,.81,0,1.21a3.55,3.55,0,0,1-.19.71l.28.24c.24-.27.62-.5.7-.82.19-.68.22-1.41-.65-1.73-1.34-.5-2.18,0-3.48,2.25-.34-.23-.86-.39-1-.69a1.54,1.54,0,0,1,.33-1.17,3.68,3.68,0,0,1,1.23-1.06c1-.49.91-1.07.29-1.78l-.46-.54,2.69-1.9c.5.56,1,1,1.34,1.54a1.05,1.05,0,0,1,.21.86c-.43.93,0,1.1.81,1.08h1.27c-1.35-2.14.87-2.24,1.46-3.23,1.17.29,1.26,2,2.95,1.83l-4.6-5.11.84-1-.19-.28a10.28,10.28,0,0,0-1.13.72c-2.72,2.14-5.39,4.36-8.15,6.45-1.78,1.33-3.65,2.54-5.54,3.71-2.38,1.47-4.82,2.84-7.23,4.26a4.2,4.2,0,0,0-.44.35c.65.22.65.22,2.44-.7l2.51-1.32.73,1.16c-.52.21-.91.4-1.32.53-1.11.36-2.12.94-2.08,2.2,0,.52.67,1.15,1.19,1.51a2.77,2.77,0,0,0,3.05-.5,7.63,7.63,0,0,0,.69-.86l1.38,1.71.43-.29-3.27-5.78c1.05-.75,2.05-1.53,3.12-2.2a1.08,1.08,0,0,1,1,.21c.29.45.87,1,.1,1.61a6,6,0,0,0-.84,1,4.31,4.31,0,0,0,1.14.73c1.2.29,2.42.5,3.64.67.22,0,.49-.26.73-.41a2.11,2.11,0,0,0-.71-.31c-.94,0-1.87,0-3.06,0a3.63,3.63,0,0,0-.51-4c-.09-.11,0-.52.16-.62,1.51-1.08,3-2.13,4.58-3.2.71.65.71,1.14-.14,1.62a3,3,0,0,0-1,.94c-.27.47-.62,1.17-.45,1.54s.92.66,1.43.95a1,1,0,0,0,.4.05c.46,1.54,1.12,2.09,2.71,1.94a19.59,19.59,0,0,0,2.95-.74l2.63-.61.18.43a17.67,17.67,0,0,1-1.45,1.17c-2.73,1.84-5.45,3.67-8.21,5.44a2.68,2.68,0,0,1-1.42.25c-1.35,0-2.74-.62-4.05.2a5.6,5.6,0,0,0-.57.54c1.72-.17,3.12-1.27,4.65-.14-.41.24-.77.46-1.13.65a116.61,116.61,0,0,1-18.19,8.05,2.88,2.88,0,0,1-1.5-.11,20.24,20.24,0,0,0-2-.79,12.26,12.26,0,0,0-2.27,0v.5a8.93,8.93,0,0,1,2.17-.14,4.33,4.33,0,0,1,2,1.11c-1.25.35-2.49.76-3.75,1-3.31.73-6.62,1.48-10,2.07a47.38,47.38,0,0,1-6.51.76c-4.23.17-8.46.31-12.69.21a76.26,76.26,0,0,1-10-.88c-3.87-.6-7.7-1.53-11.52-2.41a3.2,3.2,0,0,1-1.45-1.16c-.9-1-1.48-2.45-3.21-2.48,1,1,2.6,1.44,3.06,3.22-1.42-.43-2.7-.78-4-1.2a91.46,91.46,0,0,1-20.29-9.4c-7.91-5-15.35-10.68-21.58-17.74-3.08-3.49-6-7.18-8.89-10.8-.81-1-.63-1.36.68-1.61,4.15-.81,8.3-1.62,12.46-2.38a1.34,1.34,0,0,1,1,.44c2.75,3,5.35,6.08,8.25,8.9a86.15,86.15,0,0,0,19,14.08,77.55,77.55,0,0,0,23.44,8.58c3,.53,6,.86,9,1.32,5.42.84,10.85.45,16.25-.07a93.24,93.24,0,0,0,50.61-21.76c3.38-2.95,6.4-6.29,9.61-9.43a1.55,1.55,0,0,1,1.07-.52c4.22.75,8.43,1.58,12.64,2.38Zm-50.52,27.08-.08-.41c-4,1.16-7.9,2.45-11.91,3.44s-8.09,1.67-12.14,2.49v.2h1.69c.1.68.17,1.29.28,1.89.16.85-.1,1.32-1,1.35-1.25,0-1.84-.27-1.74-1.22a2.06,2.06,0,0,0-1.1-2.17,2.36,2.36,0,0,0-2.48.23c-.17.09-.23.38-.34.58.24.09.52.29.72.24.49-.13.93-.44,1.42-.56.7-.19,1.11.1,1.14.88s-.42,1-1.07,1.11a8.14,8.14,0,0,0-1.18.45l.16.48a4.55,4.55,0,0,1,1.42-.24,2.84,2.84,0,0,1,1.53.72c.15.17-.19,1-.51,1.33-.91,1-1.83.31-2.65-.22a14.45,14.45,0,0,1-1.62-1.42l-.27.31a18.27,18.27,0,0,0,2.22,1.93c2,1.2,3.42.48,3.78-1.73,1.72-.15,1.73-.15,2,1.42a3.29,3.29,0,0,0,.09.64,2.14,2.14,0,0,0,.41.5c.1-.19.29-.39.28-.59a16.62,16.62,0,0,0-.18-1.73c-.17-1.39-.34-2.78-.52-4.18,1.7-.35,3.24-.61,4.75-1,1-.27,1.52-.05,1.58,1,0,.27.06.55.09.8-1.24.27-2.42.47-3.55.82-.26.08-.56.94-.5,1a8.39,8.39,0,0,0,1.53.84s.24-.22.22-.31c-.31-1.63,1-1.38,1.84-1.51a1,1,0,0,1,.77.57c.28.82.42,1.69.67,2.53.07.23.36.39.56.58l.27-.2q-.72-3.16-1.44-6.37c1.81-.48,3.56-1,5.32-1.4a1,1,0,0,1,.77.43,7,7,0,0,1,.39,1.41c-1,.25-2,.4-2.85.71a5,5,0,0,0-1.24.95,6.77,6.77,0,0,0,1.21,1.13c.59.33,1,.16.81-.66a1.09,1.09,0,0,1,.26-.9c1.39-.93,2.07-.66,2.55.92a13.78,13.78,0,0,0,.46,1.46,3.08,3.08,0,0,0,.58.68l.35-.19L137.45,236c1.89-.67,3.67-1.3,5.45-2,.62-.23.94,0,1.15.57s-.14.76-.59.92a14.64,14.64,0,0,0-1.93.77c-1.07.56-1.38,1.58-.54,2.43a14.55,14.55,0,0,0,2.86,1.91c.1.06.37-.16.77-.35-.56-.28-.91-.44-1.24-.64a11.67,11.67,0,0,1-1.66-1,.88.88,0,0,1,.09-1.55,22.75,22.75,0,0,1,2.64-1.2c.32.68.53,1.14.74,1.61s.38,1,.65,1.5a6.42,6.42,0,0,0,.74.93l.29-.23-2.39-6.06Zm-60.12,3.55c-.2,1.46-1.26,2.7-.89,4.25a1.27,1.27,0,0,0,.56-.62c.37-1.07.74-2.14,1.08-3.22.64-2.06.64-2.09,2.69-1.61,2.44.57,4.86,1.2,7.31,1.81-.12.74-.22,1.39-.35,2-.1.48-.21.95-.89.84s-1.25,0-1.36-.91a2.07,2.07,0,0,0-2.25-2c-.24,0-.46.23-.69.35a2.22,2.22,0,0,0,.6.43c.27.09.59,0,.87.07.69.2,1.3.67,1,1.4a1.77,1.77,0,0,1-1.37.9,3.11,3.11,0,0,1-1.78-.86,9.17,9.17,0,0,1-1.27-1.83,3.65,3.65,0,0,0,1.36,2.83c1.29,1.12,2.06,1.08,3.43,0a.94.94,0,0,1,.66-.11c1,.21,1.5.75,1,1.85a6,6,0,0,0-.24,1.22l.36.18a2.82,2.82,0,0,0,.51-.76c.27-1.09.47-2.21.72-3.31.46-2.07.47-2.07,2.48-1.58a2,2,0,0,1,.35.2c0,.37-.12.76-.17,1.15-.18,1.45-.38,2.89-.52,4.34a2.7,2.7,0,0,0,.24.88l.39-.06c.27-2.08.54-4.15.82-6.26l6.5.73-.15,2.1c-.69-.11-1.25-.21-1.83-.28a10.1,10.1,0,0,0-1.74-.1,1.13,1.13,0,0,0-.85.46,1.18,1.18,0,0,0,.21,1,4.81,4.81,0,0,0,1,.78c1-1.65,1-1.65,3.06-1.07,0,1,0,2,0,3a1.89,1.89,0,0,0,.24.6c.14-.2.38-.39.4-.59.13-1.46.27-2.91.29-4.37,0-1,0-1.88,1.6-1.42-.27-.29-.36-.47-.47-.47-10.08-.85-19.67-3.68-29.07-7.25-.06,0-.17.09-.47.25.44.21.73.37,1,.48,1.81.68,3.63,1.33,5.43,2,.29.12.67.4.73.68.17.73-.35,1.12-1.11.87-1-.33-2-.72-3-1.08l-.19.36a3.63,3.63,0,0,1,.81.74c.23.41.54,1,.4,1.33a1.58,1.58,0,0,1-1.24.57c-1,0-1.89-1-2.14-2.29-.09-.46-.23-.9-.34-1.35l-.27.08a4.47,4.47,0,0,0,1.5,3.77,3,3,0,0,0,2.15.64c.94-.15,1-1.13,1-2a2.8,2.8,0,0,1,.13-.54ZM59.87,220.5c1.55,1.07,3,2.11,4.53,3.13.48.32.66.63.28,1.15s-.76.37-1.2.05a15.44,15.44,0,0,0-1.84-1.17c-1.08-.54-2.11-.21-2.33.94a13.08,13.08,0,0,0,.09,3.18c0,.1.41.3.47.25s.35-.38.32-.55a10.39,10.39,0,0,1-.43-1.34c0-.51,0-1.22.27-1.48a1.87,1.87,0,0,1,1.52-.13,8.4,8.4,0,0,1,1.59.94c.63.36.52.75.13,1.24a24.45,24.45,0,0,0-1.45,2,2.89,2.89,0,0,0-.21.91l.42.17,3.65-5.18c.93.58,1.76,1,2.51,1.61.27.2.55.81.43,1a1.39,1.39,0,0,1-1.06.58c-1.34-.06-1.46,0-1.28,1.33a2.9,2.9,0,0,0,2,2.41c.32.13.66.23,1,.35l-.62,2,.45.17,3.17-5.42,1.3.38.18-.38a103.46,103.46,0,0,1-19.09-13.37,1.52,1.52,0,0,0,.52,1c1,.83,1,1,.13,2s-1.33.27-2-.22c-.94,2-.37,3.73.32,5.57a1,1,0,0,0,.38-.82c-.09-.53-.37-1-.48-1.56a6,6,0,0,1,0-1.2,4.53,4.53,0,0,1,1.35.42c.49.35.79,1,1.29,1.3.83.55.74,1,.15,1.66a10.12,10.12,0,0,0-.91,1.48l.42.29Zm2.87,13.1c0-1.46-1.14-3.56-2.48-4Z"/><path class="cls-2" d="M160.15,193.07c-1.22,1.46-2.23,2.74-3.31,4a163.93,163.93,0,0,1-16.44,16,144.82,144.82,0,0,1-19.27,13.67c-2.31,1.39-4.74,2.59-7.09,3.91-.88.49-1.49-.15-2.11-.45-7.52-3.68-14.2-8.62-20.62-13.95a149.4,149.4,0,0,1-21.06-21.61,14,14,0,0,1-.86-1.26,1.43,1.43,0,0,1-.06-.38c.94-.14,1.85-.32,2.78-.39.23,0,.56.27.74.5a162.45,162.45,0,0,0,17.53,18.34,132.75,132.75,0,0,0,16.14,12.21c1.78,1.14,3.69,2.07,5.51,3.14a2.44,2.44,0,0,0,2.75,0c3.06-1.83,6.19-3.57,9.24-5.43A128.4,128.4,0,0,0,146,204.19c3.37-3.23,6.51-6.7,9.69-10.12a2.66,2.66,0,0,1,2.46-1A19.52,19.52,0,0,0,160.15,193.07Z"/><path class="cls-2" d="M116.29,233c2.64-2,5.67-2.64,8.87-3A79.9,79.9,0,0,0,151.53,222a85.39,85.39,0,0,0,18.15-11.76A92.52,92.52,0,0,0,183.3,195.7c.72-1,1.5-1.89,2.22-2.85s1.48-.34,2.24-.41a6.28,6.28,0,0,1,1,.08c-7.56,10.73-16.36,20-27.43,26.81C147.54,227.84,132.6,232.79,116.29,233Z"/><path class="cls-2" d="M41.81,193.28a2.52,2.52,0,0,1,3.26,1c6.65,8.48,14,16.24,23,22.37a80.62,80.62,0,0,0,28.81,12.54c2.56.56,5.2.74,7.79,1.15a8,8,0,0,1,2.22.74,24.33,24.33,0,0,1,3,1.92,61.74,61.74,0,0,1-18.28-2.61,85.38,85.38,0,0,1-37-21.66C49.8,204.06,45.1,199.25,41.81,193.28Z"/><path class="cls-2" d="M127.43,197c.14,1.25-.24,1.71-1.28,1.53a2.8,2.8,0,0,0-1.08,0c-.26.05-.47.29-.7.44.22.2.4.49.66.58s.82,0,1.18.18a3.24,3.24,0,0,1,.78.67,3.43,3.43,0,0,1-.81.49c-.3.09-.67-.05-1,0a4.58,4.58,0,0,0-.9.48,3.32,3.32,0,0,0,.93.45,5.23,5.23,0,0,0,1.31,0c.61,0,.87.21.84.82s-.31.67-.86.65a23,23,0,0,0-2.62.1c-.67,0-1-.24-1-1,0-1.56-.15-3.12-.16-4.68,0-.26.38-.74.61-.75C124.71,196.93,126.05,197,127.43,197Z"/><path class="cls-2" d="M107.24,203.35c-.41-.16-1-.2-1.2-.5-.6-.88-1.45-.65-2.25-.72a1.64,1.64,0,0,0-1.93,1c-.06.16-.48.16-.73.23-.06-.22-.21-.48-.14-.66.69-1.84,1.37-3.68,2.14-5.48a1,1,0,0,1,1.75,0c.9,1.93,1.74,3.89,2.6,5.84Zm-2.41-2.19-.71-2.27C103.08,200.85,103.41,201.42,104.83,201.16Z"/><path class="cls-2" d="M93,197c1.21-.24,1.85,0,2.16,1.12a32.48,32.48,0,0,0,1.32,3.21c.33-.67.58-1.12.78-1.59a19.66,19.66,0,0,1,1.05-2.39c.17-.29.75-.34,1.15-.5.06.34.26.73.16,1-.64,1.63-1.33,3.24-2,4.84a1.06,1.06,0,0,1-1.85.21C94.77,201,93.92,199,93,197Z"/><path class="cls-2" d="M132.74,199.54c.23-.44.42-.83.64-1.19a3.68,3.68,0,0,1,.81-1.14c.26-.19.74-.07,1.12-.09a3,3,0,0,1-.08,1c-.2.47-.52.88-.76,1.33a5,5,0,0,0-1,3.28c0,.21-.47.65-.78.71s-.78-.4-.76-.57c.24-1.87-.87-3.08-2-4.31-.3-.34-.54-.74-1-1.37C131.13,196.8,131.45,198.75,132.74,199.54Z"/><path class="cls-2" d="M115.94,199.46a9.49,9.49,0,0,1,0-1.85,1.21,1.21,0,0,1,.78-.73c.17,0,.64.41.68.68a23.79,23.79,0,0,1,.23,3.38c0,1,.42,1.21,1.27,1.08a4.48,4.48,0,0,1,1.09-.11c.28,0,.78.21.78.32,0,.32-.17.9-.33.92-1.33.14-2.67.19-4,.21-.09,0-.26-.47-.28-.73-.09-1-.14-2.11-.2-3.17Z"/><path class="cls-2" d="M111.49,203.29h-1c-.69,0-1-.35-1-1,0-1.49-.13-3-.13-4.48,0-.29.32-.59.5-.88.34.29.93.53,1,.87a15.53,15.53,0,0,1,.17,3.05c0,1,.46,1.27,1.34,1.19a5.39,5.39,0,0,1,1.2-.05c.23,0,.44.24.66.37-.16.25-.29.66-.5.71a21.17,21.17,0,0,1-2.26.31Z"/><path class="cls-2" d="M171.64,220.93l-1.9-2.19,2.34-2.12,2,2.3Z"/><path class="cls-2" d="M156.85,232.91a6.35,6.35,0,0,1-1.74.68c-.32,0-.76-.45-1-.79a1,1,0,0,1,0-.88c.09-.15.53-.19.77-.11.62.18,1.21.45,1.81.69Z"/><path class="cls-2" d="M154.79,231a11.22,11.22,0,0,1,1.63-.72.86.86,0,0,1,.71.43,5.11,5.11,0,0,1,.15,1.31,3,3,0,0,1-.9,0c-.53-.18-1-.45-1.55-.68Z"/><path class="cls-2" d="M166.18,202.69l2.94-.85.12.36-2.93.84Z"/><path class="cls-2" d="M160.36,207.62l2.39-.27.05.41-2.38.32Z"/><path class="cls-2" d="M22.71,107.3c-1,1.74-2.89,1.41-4.47,1.78A7.41,7.41,0,0,1,22.71,107.3Z"/><path class="cls-2" d="M21.28,96.25a5.49,5.49,0,0,1,4.59-1.57C24.7,96.23,22.72,95.47,21.28,96.25Z"/><path class="cls-2" d="M24.14,100.84c-.36.87-3.05,2-4.34,1.82A5.55,5.55,0,0,1,24.14,100.84Z"/><path class="cls-2" d="M28.3,89,23.7,90l-.08-.35c1.28-1.37,3-1,4.58-1.16Z"/><path class="cls-2" d="M21.4,120.44c-.93,1.64-3,1-3.92,2.38C17.84,121.65,19.79,120.47,21.4,120.44Z"/><path class="cls-2" d="M17.84,115.12l3.59-1.67c.06,1-1.86,1.94-3.47,1.94Z"/><path class="cls-2" d="M19.49,88.79l1.14,3a2.37,2.37,0,0,1-1.44-2.86Z"/><path class="cls-2" d="M197.8,93a4.87,4.87,0,0,1,3.74,1.21.72.72,0,0,1,.16.65.68.68,0,0,1-.61.29A4.46,4.46,0,0,1,197.8,93Z"/><path class="cls-2" d="M201.87,78.71a25.81,25.81,0,0,1-.42,2.91c-.06.22-.71.41-1.07.39-.16,0-.48-.69-.38-.92a28.66,28.66,0,0,1,1.39-2.55Z"/><path class="cls-2" d="M200.08,99.25c1.58.45,3.12.38,4.17,1.74A3.42,3.42,0,0,1,200.08,99.25Z"/><path class="cls-2" d="M202.92,112.53a6.36,6.36,0,0,1,4,2.64A8.42,8.42,0,0,1,202.92,112.53Z"/><path class="cls-2" d="M209.07,114.46l2.38-2.94a2.51,2.51,0,0,1-2.06,3.21Z"/><path class="cls-2" d="M209.6,122.15c.48-1.76,1.81-2.73,3.28-3.58C212.4,120.31,210.56,120.83,209.6,122.15Z"/><path class="cls-2" d="M205.47,107.51c-1.26-.61-2.89-.5-3.69-1.94A4.64,4.64,0,0,1,205.47,107.51Z"/><path class="cls-2" d="M207.18,99.85l1.73-2.5.26,0c0,.6.22,1.35-.06,1.77s-1.08.71-1.65,1Z"/><path class="cls-2" d="M206.91,121.76a4.84,4.84,0,0,1-3.31-2.11A4.77,4.77,0,0,1,206.91,121.76Z"/><path class="cls-2" d="M196.81,82.14l-4.49-1.88C193.63,79.89,195.79,80.86,196.81,82.14Z"/><path class="cls-2" d="M196.5,75.92c-1.49,0-1.92-.58-1.61-2.32l1.89,2Z"/><path class="cls-2" d="M195.49,86.7l3.35.74-.09.43-3.32-.77Z"/><path class="cls-2" d="M206.89,91.79l-1.52,1.87-.3-.22,1.45-2Z"/><path class="cls-2" d="M125.18,25.58l2.22,5.13c-5,.33-9.8.56-13.17,4.74l-.27-.17a5.06,5.06,0,0,1,.64-1.39,2.62,2.62,0,0,0,.23-3.14c-.66-1.46-.59-2.12.71-3.14a24.49,24.49,0,0,1,4-2.57c1.41-.73,3-1.22,4.45-1.83l1.13,2.12Z"/><path class="cls-2" d="M102.2,25c.08-.07.19-.12.24-.21.88-1.49.87-1.48,2.57-.8a23.27,23.27,0,0,1,6.26,3.28A3.12,3.12,0,0,1,112.38,31a3.11,3.11,0,0,0,.44,3.15,2.15,2.15,0,0,1,.36,1C109.56,31.4,104.8,31,99.8,30.68c.86-2,1.65-3.88,2.44-5.73Z"/><path class="cls-2" d="M110.11,20.14l1.09.92c-.48-1.17-.91-2.24-1.34-3.3l.35-.2,1.25.8c-.38-1.32-1.37-2.35-.67-3.74l.55.78c-.41-2.81,1.53-4.82,2.3-7.26.63,2.37,2.47,4.29,2.13,7l1.07-.5c-.31,1.34-.56,2.42-.82,3.56l1.09-.7c.26,1.43-.48,2.41-1.08,3.5l1.2-.74a9.58,9.58,0,0,1-2.39,6.47c-.4-4.92-.78-9.52-1.16-14.24-.42,4.71-.82,9.3-1.22,13.91C111.16,25.65,109.72,22,110.11,20.14Z"/><path class="cls-2" d="M131.81,37.14h-2.15l-11.39,0a3.58,3.58,0,0,0-2.85,1c-1.23,1.24-2.27,1.29-3.45.11s-2.35-1.07-3.63-1.09c-4,0-8.1,0-12.15,0-.24,0-.49,0-.74-.07l-.11-.33a3.89,3.89,0,0,1,1.18-.42c3.28-.07,6.57-.11,9.85-.12,1.09,0,2.18.15,3.28.18a3.81,3.81,0,0,1,2.82,1.15,1.65,1.65,0,0,0,2.47-.1,3.83,3.83,0,0,1,3-1.15c4.38,0,8.75,0,13.13.1a2.55,2.55,0,0,1,.88.37Z"/><path class="cls-2" d="M125.18,25.58l0-.25-.16-.88c.69.91,1.76,1.31,2.21,2.48s1.43,1.85,1.86,3c.64,1.74,1.38,3.45,2.06,5.18a3.4,3.4,0,0,1,.14.72l-.23.28-2.15-1.32.15-.34,1.09-.26-.25-1c-.4.16-.73.41-1,.38a31,31,0,0,0-11.06.77c3.31-2,7-1.79,10.85-1.68C127.54,30.15,127.3,27.43,125.18,25.58Z"/><path class="cls-2" d="M113.75,18.45A8,8,0,0,1,114,19.8c.11,3.35.18,6.71.3,10.06a4.22,4.22,0,0,0,.32,1.59,2.31,2.31,0,0,1-1.28,3.14,7.83,7.83,0,0,1-.79-1.62c-.09-.38.16-.85.25-1.28a4.09,4.09,0,0,0,.13-.56c.16-4.12.3-8.24.46-12.36a.86.86,0,0,1,.11-.29Z"/><path class="cls-2" d="M99.08,29a5.14,5.14,0,0,0,.53-.94A5.64,5.64,0,0,1,102,24.5c0,.12.11.3.17.48l0,0a10.1,10.1,0,0,0-1.56,2c-.71,1.63-1.24,3.34-1.84,5a4,4,0,0,0-.08.72c3.72-.09,7.43-.36,11,1.74a36.19,36.19,0,0,0-4.47-.82c-2.28-.11-4.57,0-6.86,0-.48,0-.87.08-.69-.54.25-.86.58-1.71.88-2.55C98.75,30.06,98.91,29.55,99.08,29Z"/><path class="cls-2" d="M114,36.17a21.26,21.26,0,0,1,2.5-2.26,18.25,18.25,0,0,1,10.64-2.65c.28,0,.56.45.8.65a73.63,73.63,0,0,0-7.48.9,10.59,10.59,0,0,0-6.11,3.75Z"/><path class="cls-2" d="M99.19,31.91c.32-.22.64-.6,1-.61a19.5,19.5,0,0,1,10.1,2.27A5.44,5.44,0,0,1,112.84,36a16.68,16.68,0,0,0-13.48-3.78Z"/><path class="cls-2" d="M99.08,29c-.17.51-.33,1-.49,1.53a8.3,8.3,0,0,0-.76,1.28c-.3.73-.5,1.5-.77,2.34l1.25.11c-.32,1.14-.86,1.5-2.52,1.54,1.11-2.75,2.18-5.42,3.26-8.09l.23.07Z"/><path class="cls-1" d="M123.62,115.18l3,.32c-1.1,1.22-5.22,2-6.52,1.31-.15-.08-.21-.32-.32-.48a3.2,3.2,0,0,1,.7-.38C121.39,115.7,122.34,115.49,123.62,115.18Z"/><path class="cls-1" d="M101.15,115.81c1.76-.12,3.42-1.3,5.25-.39.2.09.47.33.46.5s-.27.43-.47.5A6.32,6.32,0,0,1,101.15,115.81Z"/><path class="cls-1" d="M118.41,124.46h4.69C122.38,125.7,119.41,125.68,118.41,124.46Z"/><path class="cls-1" d="M144.23,180.39h-5.58V180l5.55.27Z"/><path class="cls-1" d="M116.43,163.65c0-1.28,0-2.55,0-3.83,0-.69.2-1,.93-1,1.05.06,2.11.06,3.17.12a3.54,3.54,0,0,1,3.55,2.41,5.13,5.13,0,0,1-.66,4.88c-1,1.39-2.57,1.66-4.15,1.87-2.5.34-2.5.35-2.65-2.09,0-.8-.09-1.6-.13-2.4Z"/><path class="cls-1" d="M112.17,180h4.76v.1h-4.76Z"/><path class="cls-1" d="M184.85,168.53h-6.23l4-5.66Z"/><ellipse class="cls-1" cx="170.93" cy="180.13" rx="4.27" ry="0.12"/><path class="cls-1" d="M189,180h4.78v.13h-4.82Z"/><path class="cls-1" d="M93.87,169H87.24L90.81,163h.36Z"/><path class="cls-1" d="M82.9,180.05H79.8v-.13h3.1Z"/><path class="cls-1" d="M145.54,233.12l-1.06.49,2.39,6.06-.29.23a6.42,6.42,0,0,1-.74-.93c-.27-.48-.43-1-.65-1.5s-.42-.93-.74-1.61a22.75,22.75,0,0,0-2.64,1.2.88.88,0,0,0-.09,1.55,11.67,11.67,0,0,0,1.66,1c.33.2.68.36,1.24.64-.4.19-.67.41-.77.35A14.55,14.55,0,0,1,141,238.7c-.84-.85-.53-1.87.54-2.43a14.64,14.64,0,0,1,1.93-.77c.45-.16.81-.3.59-.92s-.53-.8-1.15-.57c-1.78.65-3.56,1.28-5.45,2l1.86,6.18-.35.19a3.08,3.08,0,0,1-.58-.68,13.78,13.78,0,0,1-.46-1.46c-.48-1.58-1.16-1.85-2.55-.92a1.09,1.09,0,0,0-.26.9c.16.82-.22,1-.81.66a6.77,6.77,0,0,1-1.21-1.13,5,5,0,0,1,1.24-.95c.88-.31,1.82-.46,2.85-.71a7,7,0,0,0-.39-1.41,1,1,0,0,0-.77-.43c-1.76.42-3.51.92-5.32,1.4q.72,3.21,1.44,6.37l-.27.2c-.2-.19-.49-.35-.56-.58-.25-.84-.39-1.71-.67-2.53a1,1,0,0,0-.77-.57c-.87.13-2.15-.12-1.84,1.51,0,.09-.2.32-.22.31a8.39,8.39,0,0,1-1.53-.84c-.06-.05.24-.91.5-1,1.13-.35,2.31-.55,3.55-.82,0-.25-.07-.53-.09-.8-.06-1.08-.57-1.3-1.58-1-1.51.4-3,.66-4.75,1,.18,1.4.35,2.79.52,4.18a16.62,16.62,0,0,1,.18,1.73c0,.2-.18.4-.28.59a2.14,2.14,0,0,1-.41-.5,3.29,3.29,0,0,1-.09-.64c-.32-1.57-.33-1.57-2-1.42-.36,2.21-1.82,2.93-3.78,1.73a18.27,18.27,0,0,1-2.22-1.93l.27-.31a14.45,14.45,0,0,0,1.62,1.42c.82.53,1.74,1.19,2.65.22.32-.34.66-1.16.51-1.33a2.84,2.84,0,0,0-1.53-.72,4.55,4.55,0,0,0-1.42.24l-.16-.48a8.14,8.14,0,0,1,1.18-.45c.65-.12,1.1-.34,1.07-1.11s-.44-1.07-1.14-.88c-.49.12-.93.43-1.42.56-.2,0-.48-.15-.72-.24.11-.2.17-.49.34-.58a2.36,2.36,0,0,1,2.48-.23,2.06,2.06,0,0,1,1.1,2.17c-.1.95.49,1.27,1.74,1.22.94,0,1.2-.5,1-1.35-.11-.6-.18-1.21-.28-1.89h-1.69v-.2c4-.82,8.13-1.5,12.14-2.49s7.94-2.28,11.91-3.44Z"/><path class="cls-1" d="M85.42,236.67,83.71,236a2.8,2.8,0,0,0-.13.54c0,.84,0,1.82-1,2a3,3,0,0,1-2.15-.64,4.47,4.47,0,0,1-1.5-3.77l.27-.08c.11.45.25.89.34,1.35.25,1.25,1.14,2.3,2.14,2.29a1.58,1.58,0,0,0,1.24-.57c.14-.33-.17-.92-.4-1.33a3.63,3.63,0,0,0-.81-.74l.19-.36c1,.36,2,.75,3,1.08.76.25,1.28-.14,1.11-.87-.06-.28-.44-.56-.73-.68-1.8-.7-3.62-1.35-5.43-2-.31-.11-.6-.27-1-.48.3-.16.41-.28.47-.25,9.4,3.57,19,6.4,29.07,7.25.11,0,.2.18.47.47-1.63-.46-1.58.43-1.6,1.42,0,1.46-.16,2.91-.29,4.37,0,.2-.26.39-.4.59a1.89,1.89,0,0,1-.24-.6c0-1,0-2,0-3-2.07-.58-2.07-.58-3.06,1.07a4.81,4.81,0,0,1-1-.78,1.18,1.18,0,0,1-.21-1,1.13,1.13,0,0,1,.85-.46,10.1,10.1,0,0,1,1.74.1c.58.07,1.14.17,1.83.28l.15-2.1-6.5-.73c-.28,2.11-.55,4.18-.82,6.26l-.39.06a2.7,2.7,0,0,1-.24-.88c.14-1.45.34-2.89.52-4.34,0-.39.12-.78.17-1.15a2,2,0,0,0-.35-.2c-2-.49-2-.49-2.48,1.58-.25,1.1-.45,2.22-.72,3.31a2.82,2.82,0,0,1-.51.76l-.36-.18a6,6,0,0,1,.24-1.22c.47-1.1,0-1.64-1-1.85a.94.94,0,0,0-.66.11c-1.37,1-2.14,1.08-3.43,0a3.65,3.65,0,0,1-1.36-2.83A9.17,9.17,0,0,0,90,239.55a3.11,3.11,0,0,0,1.78.86,1.77,1.77,0,0,0,1.37-.9c.28-.73-.33-1.2-1-1.4-.28-.08-.6,0-.87-.07a2.22,2.22,0,0,1-.6-.43c.23-.12.45-.35.69-.35a2.07,2.07,0,0,1,2.25,2c.11.91.76.81,1.36.91s.79-.36.89-.84c.13-.64.23-1.29.35-2-2.45-.61-4.87-1.24-7.31-1.81-2-.48-2-.45-2.69,1.61-.34,1.08-.71,2.15-1.08,3.22a1.27,1.27,0,0,1-.56.62C84.16,239.37,85.22,238.13,85.42,236.67Z"/><path class="cls-1" d="M59.87,220.5l-4.09,4.78-.42-.29a10.12,10.12,0,0,1,.91-1.48c.59-.65.68-1.11-.15-1.66-.5-.33-.8-.95-1.29-1.3a4.53,4.53,0,0,0-1.35-.42,6,6,0,0,0,0,1.2c.11.53.39,1,.48,1.56a1,1,0,0,1-.38.82c-.69-1.84-1.26-3.62-.32-5.57.7.49,1.27,1.08,2,.22s.86-1.15-.13-2a1.52,1.52,0,0,1-.52-1,103.46,103.46,0,0,0,19.09,13.37l-.18.38-1.3-.38-3.17,5.42-.45-.17.62-2c-.36-.12-.7-.22-1-.35a2.9,2.9,0,0,1-2-2.41c-.18-1.32-.06-1.39,1.28-1.33a1.39,1.39,0,0,0,1.06-.58c.12-.2-.16-.81-.43-1-.75-.57-1.58-1-2.51-1.61L62,229.84l-.42-.17a2.89,2.89,0,0,1,.21-.91,24.45,24.45,0,0,1,1.45-2c.39-.49.5-.88-.13-1.24a8.4,8.4,0,0,0-1.59-.94,1.87,1.87,0,0,0-1.52.13c-.3.26-.31,1-.27,1.48a10.39,10.39,0,0,0,.43,1.34c0,.17-.16.43-.32.55s-.46-.15-.47-.25a13.08,13.08,0,0,1-.09-3.18c.22-1.15,1.25-1.48,2.33-.94a15.44,15.44,0,0,1,1.84,1.17c.44.32.8.49,1.2-.05s.2-.83-.28-1.15C62.9,222.61,61.42,221.57,59.87,220.5ZM69.39,227c-.28,1.7-.28,1.68-1.84,1.75-.24,0-.46.31-.68.47.41.56.72,1.3,1.27,1.61a2,2,0,0,0,1.85,0,12.25,12.25,0,0,0,1.63-2.57Zm-14.52-7.09c.91.7,1.66,1.63,2.55,1.81.5.09,1.24-1.08,1.92-1.72-.41-.39-.65-.66-.92-.88-.53-.42-1-1-1.64-1.15-.28-.06-.75.82-1.15,1.27A9.49,9.49,0,0,1,54.87,219.86Z"/><path class="cls-1" d="M62.74,233.6l-2.48-4C61.6,230,62.73,232.14,62.74,233.6Z"/><path class="cls-1" d="M104.83,201.16c-1.42.26-1.75-.31-.71-2.27Z"/><path class="cls-2" d="M69.39,227l2.23,1.26A12.25,12.25,0,0,1,70,230.78a2,2,0,0,1-1.85,0c-.55-.31-.86-1.05-1.27-1.61.22-.16.44-.46.68-.47C69.11,228.63,69.11,228.65,69.39,227Z"/><path class="cls-2" d="M54.87,219.86a9.49,9.49,0,0,0,.76-.67c.4-.45.87-1.33,1.15-1.27.6.13,1.11.73,1.64,1.15.27.22.51.49.92.88-.68.64-1.42,1.81-1.92,1.72C56.53,221.49,55.78,220.56,54.87,219.86Z"/></g></g></svg>